<svg xmlns="http://www.w3.org/2000/svg" xmlns:xlink="http://www.w3.org/1999/xlink" xmlns:xodm="http://www.corel.com/coreldraw/odm/2003" xml:space="preserve" width="254mm" height="254mm" version="1.1" style="shape-rendering:geometricPrecision; text-rendering:geometricPrecision; image-rendering:optimizeQuality; fill-rule:evenodd; clip-rule:evenodd" viewBox="0 0 25400 25400">
 <defs>
  <style type="text/css">
   <![CDATA[
    .str1 {stroke:white;stroke-width:29.99;stroke-miterlimit:22.9256}
    .str0 {stroke:white;stroke-width:29.99;stroke-miterlimit:2.61313}
    .fil2 {fill:blue}
    .fil0 {fill:blue;fill-rule:nonzero}
    .fil1 {fill:white;fill-rule:nonzero}
   ]]>
  </style>
 </defs>
 <g id="Layer_x0020_1">
  <metadata id="CorelCorpID_0Corel-Layer"/>
  <g id="_1502097826288">
   <path class="fil0 str0" d="M14122.62 2380.2c-516.17,-91.4 -1055.21,-139.22 -1627.56,-158.23 -572.36,19.01 -1111.4,66.83 -1627.57,158.23 -508.16,90.05 -987.2,221.96 -1445.55,410 -561.25,258.6 -1096.4,590.12 -1576.51,966.48 -489.61,383.82 -920.97,814.22 -1263.11,1260.93 -115.32,150.65 -215.84,287.62 -302.72,411.99 -85.38,122.17 -166.66,244.72 -244.18,367.49 -99.62,180.73 -195.19,372.11 -287.8,571.11 -99.2,213.14 -185.93,413.1 -265.12,605.19 -48.21,116.89 -91.29,230.08 -129.67,339.29 -36.85,104.75 -68.58,203.02 -95.85,295.2 -73.56,354.95 -94.04,679.82 -113.48,989.27 -20.08,319.38 -39.27,623.77 -113.37,957.36 -53.08,239.02 -234.03,501.89 -441.5,637.91 -108.1,70.96 -230.09,115.11 -358.38,119.1l-1.38 0c-150.58,4.59 -294.71,-43.83 -419.29,-162.79 -145.7,-139.18 -255.69,-382.55 -286.34,-769.26 -2.71,-22.57 -4.92,-48.71 -6.59,-79.01 -2.39,-42.05 -3.56,-76.83 -3.56,-105.46l1.42 -4.2 0.36 -29.98c-0.39,-35.96 -0.22,-72.78 0.43,-110.09 0.78,-46.15 1.99,-86.81 3.48,-122.2 38.67,-1230.96 340.04,-2362.72 841.54,-3367.54 533.69,-1069.31 1294.94,-1997.05 2207.83,-2749.43 793.12,-676.04 1652.56,-1181.89 2544.38,-1532.6 943.33,-371.01 1924.66,-568.41 2903.74,-609.79l13.95 -1.42 929.77 0 13.96 1.42c979.01,41.38 1960.34,238.78 2903.67,609.79 891.85,350.71 1751.26,856.56 2544.59,1532.35 908.72,749.46 1667.87,1674.28 2202.1,2741.6 502.25,1003.36 805.11,2131.27 846.2,3355.78 1.88,37.78 3.24,81.79 4.2,130.39l0 1.39c0.75,40.77 0.96,80.86 0.57,120.21l0.35 30.12 1.43 4.2c0,27.06 -1.18,61.38 -3.45,103.5 -1.64,30.91 -3.85,57.54 -6.66,80.51 -30.52,386.71 -140.5,630.29 -286.2,769.61 -124.51,119 -268.68,167.46 -419.29,162.86 -129.25,-3.95 -251.63,-48.14 -359.8,-119.03 -207.43,-135.94 -388.42,-398.96 -441.58,-637.94 -74.2,-333.73 -93.35,-638.27 -113.44,-957.79 -19.4,-308.99 -39.84,-633.28 -113.04,-987.41 -27.35,-92.33 -59.14,-190.78 -96.1,-295.85 -38.46,-109.49 -81.58,-222.93 -129.86,-340.07 -79.25,-192.34 -166.06,-392.55 -265.33,-605.79 -92.64,-199.07 -188.39,-390.63 -288.26,-571.65 -77.44,-122.63 -158.7,-245 -243.86,-366.99 -86.81,-124.3 -187.15,-261.06 -302.26,-411.35 -342.17,-446.74 -773.6,-877.14 -1263.25,-1260.97 -480.14,-376.32 -1015.26,-707.84 -1576.51,-966.44 -458.35,-188.04 -937.35,-319.95 -1445.55,-410z"/>
   <polygon class="fil0" points="5062.83,19725.95 5062.83,13407.5 6318.15,13407.5 6318.15,12053.47 2213.92,12053.47 2213.92,13407.5 3455.06,13407.5 3455.06,19725.95 2072.81,19725.95 2072.81,21079.85 6459.13,21079.85 6459.13,19725.95 "/>
   <path class="fil1" d="M4856.32 19725.95l0 -6524.96 1255.32 0 0 -941.01 -3691.2 0 0 941.01 1241.14 0 0 6731.48 -1382.26 0 0 940.87 3973.3 0 0 -940.87 -1396.3 0 0 -206.52zm413.02 -6111.94l0 5905.43 1396.3 0 0 1766.92 -4799.34 0 0 -1766.92 1382.25 0 0 -5905.43 -1241.14 0 0 -1767.05 4517.25 0 0 1767.05 -1255.32 0z"/>
   <path class="fil2 str1" d="M21353.11 17740.04c39.05,1767.64 72.01,3260.62 -752.26,4524.63 -496.73,761.78 -1096.68,1376.75 -1828.54,1803.52 -735.01,428.59 -1595.46,664.06 -2608.5,664.06 -619.78,0 -1159.59,-72.63 -1642.72,-214.03 -489.5,-143.27 -915.12,-356.17 -1301.41,-634.82 -2106.46,-1519.81 -2142.82,-2750.9 -2179.03,-3977.8 -9.77,-331.79 -19.6,-663.41 -78.56,-988.9 -25.62,-141.54 -45.57,-149.5 -91.23,-167.65 -250.54,-99.54 -679.03,-269.74 -1428.1,-1237.25 -1102.88,-1424.56 -1574.65,-2843.65 -2115.33,-4470.21l-127.82 -382.31c-680.69,-2034.37 -493.56,-2668.01 120.45,-2873.43 247.38,-82.75 521.35,-63.29 830.19,-41.34 325.11,23.13 698.66,49.69 1020.79,-62.18 114.12,-39.61 192.3,-73.71 248.28,-102.55 206.87,-225.4 488.74,-364.06 799.31,-364.06 634.64,0 1149.27,578.93 1149.27,1293.58 0,714.48 -514.63,1293.48 -1149.27,1293.48 -351.46,0 -666.18,-177.65 -877.04,-457.54 -164.87,-30.02 -420.04,-60.21 -949.46,-71.08 63.63,263.41 -12.75,-56.89 28.46,115.78 184.57,773.09 278.85,1167.8 398.85,1533.14 127.1,386.81 290.84,768.28 625.19,1547.33l158.64 369.95c432.93,1010.68 846.43,1684.58 1237.26,2091.71 285.53,297.48 546.62,439.09 784.14,458.69 131.67,10.87 263.1,-16.69 393.18,-76.38l14.99 -9.83c239.87,-157.16 493.13,-421.09 759.35,-812.67 263.58,-387.64 535.41,-894.42 814.4,-1538.51l158.61 -365.76 0 -1.38c335.7,-773.41 500.06,-1152.05 625.19,-1528.64 125.16,-376.77 218.19,-761.81 400.24,-1515.9l27.25 -112.98c-703.4,14.3 -922.39,62.36 -1088.93,98.96 -8.59,1.87 -17.04,3.74 -25.41,5.57 -194.2,168.93 -437.74,269.4 -702.09,269.4 -634.67,0 -1149.31,-578.96 -1149.31,-1293.48 0,-714.62 514.64,-1293.44 1149.31,-1293.44 413.71,0 776.49,246.06 978.86,615.42 18.66,6.85 38.47,13.88 59.52,21.12 321.89,110.55 695.44,84.27 1020.48,61.42 312.05,-21.92 588.62,-41.37 835.55,42.17 610.27,206.46 794.53,836.18 115.92,2841.68l-127.69 377.57c-441.48,1313.32 -836.97,2489.88 -1567.42,3644.14 -269.12,486.04 -551.16,911.66 -856.53,1242.37 -253.06,274.08 -522.91,485.18 -815.17,616.09 -90.4,51.93 -168.61,87.14 -236.33,114.98 6.16,808.58 40.61,1423.73 171.8,1929.47 141.57,545.8 404.05,986.86 882.64,1450.74 429.5,416.27 911.59,742.83 1476.12,929.04 566.22,186.75 1221.22,234.53 1997.15,93.2 670.93,-122.22 1178.47,-382.48 1585.29,-742 416.41,-368.05 736.6,-846.47 1021.41,-1391.26 276.6,-530.08 265.87,-902.66 247.62,-1536.98 -5.33,-186.52 -11.35,-393.98 -11.56,-642.02l0.04 -1912.71c-413.16,-143.86 -783.45,-381.89 -1085.96,-688.89 -512,-519.66 -828.8,-1236.53 -828.8,-2027.63 0,-791.1 316.8,-1507.97 828.8,-2027.63 513.78,-521.42 1223.06,-843.9 2005.78,-843.9 782.76,0 1492.08,322.51 2005.89,843.9 512,519.66 828.84,1236.56 828.84,2027.63 0,791.03 -316.84,1507.97 -828.84,2027.63 -369.22,374.65 -839.4,646.61 -1365.22,770.05 3.36,232.11 8.48,462.77 13.47,688.72zm-683.67 -4736.43c680,0 1231.61,559.4 1231.61,1249.89 0,690.66 -551.61,1250.03 -1231.61,1250.03 -680.2,0 -1231.61,-559.37 -1231.61,-1250.03 0,-690.49 551.41,-1249.89 1231.61,-1249.89z"/>
  </g>
 </g>
</svg>