<?xml version="1.0" encoding="UTF-8"?>
<!DOCTYPE svg PUBLIC "-//W3C//DTD SVG 1.1//EN" "http://www.w3.org/Graphics/SVG/1.1/DTD/svg11.dtd">
<!-- Creator: CorelDRAW 2023 -->
<svg xmlns="http://www.w3.org/2000/svg" xml:space="preserve" width="157.833mm" height="17.78mm" version="1.1" style="shape-rendering:geometricPrecision; text-rendering:geometricPrecision; image-rendering:optimizeQuality; fill-rule:evenodd; clip-rule:evenodd"
viewBox="0 0 15783.28 1778"
 xmlns:xlink="http://www.w3.org/1999/xlink"
 xmlns:xodm="http://www.corel.com/coreldraw/odm/2003">
 <defs>
  <style type="text/css">
   <![CDATA[
    .str1 {stroke:white;stroke-width:29.99;stroke-miterlimit:22.9256}
    .str0 {stroke:white;stroke-width:29.99;stroke-miterlimit:2.61313}
    .fil1 {fill:blue}
    .fil0 {fill:blue;fill-rule:nonzero}
    .fil2 {fill:#F4690B;fill-rule:nonzero}
   ]]>
  </style>
 </defs>
 <g id="Layer_x0020_1">
  <metadata id="CorelCorpID_0Corel-Layer"/>
  <g id="_1473768222128">
   <path class="fil0 str0" d="M2607.13 139.42c-37.5,-6.64 -76.65,-10.11 -118.22,-11.49 -41.57,1.38 -80.73,4.85 -118.22,11.49 -36.91,6.54 -71.7,16.13 -105,29.78 -40.76,18.79 -79.63,42.87 -114.51,70.2 -35.56,27.88 -66.89,59.15 -91.74,91.59 -8.38,10.94 -15.68,20.89 -21.99,29.93 -6.2,8.87 -12.11,17.77 -17.74,26.69 -7.23,13.13 -14.17,27.03 -20.9,41.48 -7.21,15.48 -13.51,30.01 -19.26,43.96 -3.5,8.49 -6.63,16.71 -9.42,24.64 -2.67,7.61 -4.98,14.75 -6.96,21.45 -5.34,25.78 -6.83,49.37 -8.24,71.85 -1.46,23.2 -2.85,45.31 -8.24,69.54 -3.85,17.36 -16.99,36.45 -32.06,46.33 -7.86,5.16 -16.72,8.36 -26.03,8.65l-0.1 0c-10.94,0.34 -21.41,-3.18 -30.46,-11.82 -10.58,-10.11 -18.57,-27.79 -20.8,-55.88 -0.19,-1.64 -0.36,-3.53 -0.48,-5.73 -0.17,-3.06 -0.26,-5.59 -0.26,-7.66l0.11 -0.31 0.02 -2.18c-0.02,-2.61 -0.01,-5.28 0.03,-7.99 0.06,-3.36 0.15,-6.31 0.26,-8.88 2.81,-89.41 24.7,-171.62 61.12,-244.6 38.77,-77.67 94.06,-145.06 160.37,-199.7 57.61,-49.11 120.03,-85.85 184.81,-111.33 68.52,-26.94 139.8,-41.28 210.91,-44.29l1.02 -0.1 67.53 0 1.01 0.1c71.11,3.01 142.39,17.35 210.91,44.29 64.78,25.48 127.2,62.22 184.83,111.31 66,54.43 121.14,121.61 159.95,199.13 36.48,72.88 58.47,154.81 61.46,243.75 0.14,2.74 0.23,5.94 0.3,9.47l0 0.1c0.06,2.96 0.07,5.87 0.05,8.73l0.02 2.19 0.11 0.31c0,1.96 -0.09,4.45 -0.26,7.51 -0.11,2.25 -0.28,4.18 -0.48,5.85 -2.22,28.09 -10.2,45.78 -20.79,55.9 -9.04,8.64 -19.51,12.16 -30.45,11.83 -9.39,-0.29 -18.28,-3.5 -26.14,-8.64 -15.06,-9.88 -28.21,-28.98 -32.07,-46.34 -5.39,-24.24 -6.78,-46.36 -8.24,-69.57 -1.41,-22.44 -2.89,-46 -8.21,-71.72 -1.99,-6.71 -4.3,-13.86 -6.98,-21.49 -2.79,-7.95 -5.93,-16.19 -9.43,-24.7 -5.76,-13.97 -12.07,-28.51 -19.28,-44 -6.72,-14.46 -13.68,-28.38 -20.93,-41.52 -5.63,-8.91 -11.53,-17.8 -17.72,-26.66 -6.3,-9.03 -13.59,-18.96 -21.95,-29.88 -24.85,-32.45 -56.19,-63.71 -91.76,-91.59 -34.87,-27.33 -73.74,-51.41 -114.51,-70.2 -33.29,-13.65 -68.08,-23.24 -104.99,-29.78z"/>
   <path class="fil0 str1" d="M247.52 1399.33l0 -458.94 91.17 0 0 -98.35 -298.11 0 0 98.35 90.16 0 0 458.94 -100.4 0 0 98.34 318.6 0 0 -98.34 -101.42 0zm205.91 98.34l116.78 0 0 -410.79 354.45 410.79 55.32 0 0 -655.63 -116.79 0 0 410.8 -354.45 -410.8 -55.31 0 0 655.63zm846.16 -655.63l-180.29 0 0 655.63 180.29 0c225.37,0 362.65,-123.96 362.65,-327.82 0,-203.85 -137.28,-327.81 -362.65,-327.81zm0 542.95l-63.51 0 0 -430.26 63.51 0c152.64,0 245.86,80.93 245.86,215.12 0,134.21 -93.22,215.14 -245.86,215.14zm649.48 14.34l0 -458.94 91.18 0 0 -98.35 -298.11 0 0 98.35 90.15 0 0 458.94 -100.4 0 0 98.34 318.6 0 0 -98.34 -101.42 0zm1922.82 98.34l-148.54 -227.42c90.15,-33.8 142.39,-104.49 142.39,-202.83 0,-140.35 -106.53,-225.38 -280.68,-225.38l-200.79 0 0 655.63 116.79 0 0 -204.88 84 0c8.19,0 15.36,0 23.56,-1.03l134.19 205.91 129.08 0zm-370.83 -542.94l84 0c101.41,0 163.9,43.02 163.9,112.69 0,69.66 -62.49,112.68 -163.9,112.68l-84 0 0 -225.37zm867.68 -112.69l-462.01 0 0 106.54 172.1 0 0 549.09 116.78 0 0 -549.09 173.13 0 0 -106.54zm343.17 665.88c161.86,0 260.21,-112.69 260.21,-297.09l0 -368.79 -116.79 0 0 368.79c0,114.74 -54.3,185.42 -143.42,185.42 -89.12,0 -143.42,-70.68 -143.42,-185.42l0 -368.79 -116.78 0 0 368.79c0,184.4 98.34,297.09 260.2,297.09zm582.9 0c147.51,0 261.22,-77.86 261.22,-206.93 0,-245.87 -353.42,-172.11 -353.42,-286.84 0,-40.98 53.27,-68.64 109.61,-68.64 34.83,0 113.71,17.42 185.42,61.47l27.66 -99.37c-69.66,-53.27 -157.76,-75.81 -214.1,-75.81 -121.91,0 -225.38,66.59 -225.38,182.35 0,232.54 353.43,152.63 353.43,289.91 0,57.36 -73.76,90.14 -147.52,90.14 -54.29,0 -140.34,-22.53 -208.98,-71.7l-27.66 99.36c67.62,57.37 162.88,86.06 239.72,86.06z"/>
   <path class="fil0" d="M5621.88 655.9c0,41.76 -14.7,77.4 -44.23,106.94 -29.47,29.54 -65.11,44.31 -106.88,44.31 -41.83,0 -77.47,-14.77 -107.01,-44.31 -29.61,-29.54 -44.38,-65.18 -44.38,-106.94 0,-41.76 14.77,-77.4 44.38,-106.94 29.54,-29.54 65.18,-44.31 107.01,-44.31 41.77,0 77.41,14.77 106.88,44.31 29.53,29.54 44.23,65.18 44.23,106.94zm-17.03 0c0,-37.03 -13.09,-68.61 -39.28,-94.86 -26.19,-26.27 -57.84,-39.37 -95.01,-39.37 -37.03,0 -68.68,13.1 -94.87,39.37 -26.19,26.25 -39.28,57.83 -39.28,94.86 0,37.03 13.09,68.61 39.28,94.87 26.19,26.26 57.84,39.35 94.87,39.35 37.17,0 68.82,-13.09 95.01,-39.35 26.19,-26.26 39.28,-57.84 39.28,-94.87zm-190.38 -86.65l63.07 0c22.84,0 39.14,4.22 49.11,12.59 9.89,8.36 14.84,18.84 14.84,31.28 0,13.24 -5.16,24.3 -15.5,33.25 -7.49,6.4 -18.4,10.69 -32.88,12.8 6.54,3.06 11.13,5.75 13.82,8.22 2.7,2.4 6.84,7.5 12.52,15.36 5.67,7.85 9.97,14.4 12.95,19.64l16.58 29.68 -25.9 0 -15.71 -26.92c-12.07,-20.95 -21.17,-33.46 -27.5,-37.61 -6.33,-4.15 -16.74,-6.19 -31.28,-6.19l-13.61 0 0 70.72 -20.51 0 0 -162.82zm20.51 17.03l0 56.74 20.8 0c22.93,0 38.06,-1.17 45.4,-3.42 5.39,-1.53 9.82,-4.73 13.32,-9.6 3.42,-4.81 5.17,-9.89 5.17,-15.13 0,-7.86 -2.99,-14.55 -8.88,-20.16 -5.9,-5.59 -20.88,-8.43 -44.82,-8.43l-30.99 0z"/>
   <path class="fil1 str1" d="M3132.31 1255.08c2.84,128.4 5.23,236.84 -54.64,328.65 -36.08,55.33 -79.66,100 -132.81,131 -53.39,31.13 -115.89,48.23 -189.47,48.23 -45.02,0 -84.23,-5.27 -119.32,-15.54 -35.56,-10.41 -66.47,-25.87 -94.53,-46.11 -153,-110.4 -155.64,-199.82 -158.27,-288.93 -0.71,-24.1 -1.43,-48.19 -5.71,-71.83 -1.86,-10.28 -3.31,-10.86 -6.63,-12.18 -18.19,-7.23 -49.32,-19.59 -103.72,-89.86 -80.11,-103.48 -114.38,-206.55 -153.65,-324.7l-9.29 -27.77c-49.44,-147.76 -35.84,-193.79 8.75,-208.71 17.97,-6.01 37.87,-4.6 60.3,-3 23.62,1.68 50.75,3.61 74.15,-4.52 8.29,-2.87 13.97,-5.35 18.03,-7.45 15.03,-16.37 35.5,-26.44 58.06,-26.44 46.1,0 83.48,42.05 83.48,93.96 0,51.9 -37.38,93.95 -83.48,93.95 -25.53,0 -48.39,-12.9 -63.7,-33.23 -11.98,-2.18 -30.51,-4.38 -68.97,-5.17 4.63,19.14 -0.92,-4.13 2.07,8.41 13.41,56.16 20.25,84.83 28.97,111.36 9.23,28.1 21.13,55.81 45.41,112.39l11.52 26.88c31.45,73.41 61.48,122.35 89.87,151.93 20.74,21.6 39.71,31.89 56.96,33.31 9.56,0.79 19.11,-1.21 28.56,-5.54l1.09 -0.72c17.42,-11.41 35.81,-30.58 55.15,-59.03 19.15,-28.15 38.89,-64.96 59.15,-111.75l11.53 -26.56 0 -0.1c24.38,-56.18 36.32,-83.68 45.41,-111.04 9.09,-27.36 15.84,-55.33 29.07,-110.1l1.98 -8.21c-51.1,1.04 -67,4.53 -79.1,7.19 -0.62,0.13 -1.24,0.27 -1.84,0.4 -14.11,12.27 -31.8,19.57 -51,19.57 -46.1,0 -83.48,-42.05 -83.48,-93.95 0,-51.91 37.38,-93.95 83.48,-93.95 30.05,0 56.4,17.87 71.1,44.7 1.36,0.5 2.79,1.01 4.32,1.54 23.38,8.03 50.52,6.12 74.13,4.46 22.66,-1.6 42.75,-3.01 60.69,3.06 44.32,15 57.71,60.74 8.42,206.41l-9.28 27.42c-32.07,95.39 -60.79,180.85 -113.85,264.69 -19.55,35.3 -40.03,66.22 -62.21,90.24 -18.38,19.91 -37.98,35.24 -59.21,44.75 -6.57,3.77 -12.25,6.33 -17.17,8.35 0.45,58.73 2.95,103.41 12.48,140.15 10.28,39.64 29.35,71.68 64.11,105.37 31.2,30.24 66.21,53.96 107.22,67.48 41.13,13.57 88.7,17.04 145.06,6.77 48.73,-8.87 85.6,-27.78 115.15,-53.89 30.24,-26.73 53.5,-61.49 74.19,-101.06 20.09,-38.5 19.31,-65.56 17.98,-111.63 -0.38,-13.55 -0.82,-28.62 -0.84,-46.64l0.01 -138.93c-30.01,-10.45 -56.91,-27.74 -78.88,-50.03 -37.19,-37.75 -60.2,-89.82 -60.2,-147.28 0,-57.46 23.01,-109.53 60.2,-147.28 37.32,-37.87 88.84,-61.29 145.69,-61.29 56.85,0 108.38,23.42 145.7,61.29 37.19,37.75 60.2,89.82 60.2,147.28 0,57.46 -23.01,109.53 -60.2,147.28 -26.82,27.21 -60.97,46.96 -99.17,55.93 0.25,16.86 0.62,33.61 0.98,50.02zm-49.66 -344.03c49.4,0 89.46,40.64 89.46,90.79 0,50.16 -40.06,90.79 -89.46,90.79 -49.4,0 -89.45,-40.63 -89.45,-90.79 0,-50.15 40.05,-90.79 89.45,-90.79z"/>
   <path class="fil2" d="M6219.78 836.51l0 210.05 -16.51 0c-5.35,-40.36 -14.98,-72.46 -28.89,-96.31 -13.91,-23.85 -33.78,-42.8 -59.62,-56.87 -25.68,-14.06 -52.28,-21.09 -79.8,-21.09 -31.18,0 -56.86,9.47 -77.2,28.43 -20.33,18.96 -30.57,40.66 -30.57,64.82 0,18.49 6.42,35.46 19.26,50.75 18.65,22.32 62.68,52.28 132.39,89.58 56.87,30.58 95.69,53.96 116.48,70.17 20.8,16.36 36.85,35.46 48.01,57.63 11.16,22.17 16.81,45.25 16.81,69.56 0,46.01 -17.88,85.6 -53.5,118.93 -35.77,33.33 -81.79,49.99 -137.89,49.99 -17.73,0 -34.24,-1.38 -49.84,-4.13 -9.32,-1.53 -28.43,-7.03 -57.63,-16.51 -29.04,-9.48 -47.54,-14.22 -55.34,-14.22 -7.49,0 -13.45,2.3 -17.73,6.73 -4.28,4.59 -7.49,13.91 -9.63,28.13l-16.51 0 0 -208.21 16.51 0c7.79,43.57 18.19,76.28 31.34,97.84 13.14,21.7 33.32,39.74 60.38,53.96 27.06,14.37 56.71,21.55 88.97,21.55 37.3,0 66.96,-9.93 88.51,-29.65 21.71,-19.88 32.56,-43.27 32.56,-70.17 0,-14.98 -4.12,-30.12 -12.23,-45.4 -8.25,-15.29 -20.94,-29.51 -38.21,-42.81 -11.62,-9.02 -43.57,-27.97 -95.7,-57.02 -52.13,-28.89 -89.28,-52.13 -111.29,-69.4 -22.01,-17.27 -38.83,-36.54 -50.14,-57.33 -11.47,-20.94 -17.12,-44.02 -17.12,-69.09 0,-43.57 16.81,-81.18 50.29,-112.67 33.48,-31.49 76.28,-47.24 127.95,-47.24 32.41,0 66.66,7.95 102.89,23.7 16.81,7.49 28.58,11.16 35.46,11.16 7.8,0 14.22,-2.29 19.11,-6.88 4.89,-4.74 8.87,-13.91 11.92,-27.98l16.51 0z"/>
   <path id="_1" class="fil2" d="M6457.5 912.64l0 134.84 95.85 0 0 30.26 -95.85 0.92 0 266.15c0,26.6 3.82,44.64 11.46,53.81 7.5,9.32 17.28,13.91 29.2,13.91 9.94,0 19.42,-3.06 28.74,-9.33 9.17,-6.11 16.36,-15.28 21.4,-27.36l17.43 0c-10.39,29.5 -25.22,51.67 -44.33,66.65 -19.26,14.83 -38.98,22.32 -59.31,22.32 -13.76,0 -27.22,-3.82 -40.36,-11.46 -13.15,-7.65 -22.78,-18.65 -29.05,-32.87 -6.26,-14.22 -9.48,-36.08 -9.48,-65.74l0 -277 -65.12 0 0 -14.21c16.51,-6.58 33.33,-17.58 50.6,-33.02 17.28,-15.6 32.56,-34.09 46.17,-55.65 6.88,-11.31 16.51,-32.1 28.89,-62.22l13.76 0z"/>
   <path id="_2" class="fil2" d="M6713.25 1035.55l0 92.64c34.09,-61.76 69.09,-92.64 105.02,-92.64 16.2,0 29.66,5.05 40.36,15.14 10.7,9.93 16.05,21.55 16.05,34.7 0,11.77 -3.82,21.7 -11.47,29.81 -7.79,8.1 -16.97,12.07 -27.51,12.07 -10.4,0 -22.02,-5.19 -34.86,-15.59 -12.99,-10.39 -22.62,-15.59 -28.74,-15.59 -5.35,0 -11.16,3.06 -17.43,9.02 -13.3,12.23 -27.21,32.56 -41.42,60.69l0 196.28c0,22.78 2.9,40.21 8.56,51.82 3.82,8.11 10.7,14.83 20.48,20.03 9.94,5.35 24,7.95 42.5,7.95l0 16.51 -210.04 0 0 -16.51c20.79,0 36.23,-3.21 46.32,-9.78 7.49,-4.9 12.68,-12.39 15.59,-22.93 1.53,-5.05 2.29,-19.57 2.29,-43.42l0 -158.68c0,-47.69 -0.92,-75.97 -2.9,-85.15 -1.99,-9.02 -5.51,-15.74 -10.7,-19.87 -5.2,-4.13 -11.77,-6.27 -19.42,-6.27 -9.32,0 -19.72,2.3 -31.34,6.73l-4.43 -16.51 124.28 -50.45 18.81 0z"/>
   <path id="_3" class="fil2" d="M7129.66 1398.77c-42.04,32.56 -68.49,51.52 -79.34,56.56 -16.05,7.49 -33.17,11.31 -51.36,11.31 -28.44,0 -51.83,-9.78 -70.17,-29.19 -18.35,-19.42 -27.52,-44.95 -27.52,-76.59 0,-20.03 4.44,-37.45 13.46,-51.98 12.22,-20.33 33.47,-39.44 63.74,-57.48 30.42,-17.88 80.72,-39.74 151.19,-65.42l0 -16.06c0,-40.81 -6.42,-68.79 -19.41,-84.07 -13,-15.14 -31.8,-22.78 -56.57,-22.78 -18.65,0 -33.63,5.04 -44.63,15.29 -11.32,10.08 -16.97,21.7 -16.97,34.85l0.91 25.99c0,13.76 -3.51,24.46 -10.54,31.95 -7.04,7.49 -16.36,11.16 -27.67,11.16 -11.16,0 -20.33,-3.82 -27.37,-11.62 -7.03,-7.8 -10.54,-18.5 -10.54,-31.95 0,-25.68 13.14,-49.38 39.44,-70.93 26.29,-21.56 63.28,-32.26 110.83,-32.26 36.53,0 66.34,6.12 89.73,18.35 17.58,9.17 30.58,23.69 38.98,43.41 5.35,12.69 8.11,38.98 8.11,78.58l0 139.11c0,38.98 0.76,62.98 2.29,71.69 1.53,8.87 3.97,14.68 7.34,17.74 3.51,2.9 7.49,4.43 11.92,4.43 4.89,0 9.02,-1.07 12.69,-3.06 6.27,-3.97 18.34,-14.83 36.38,-32.71l0 25.07c-33.63,45.1 -65.73,67.57 -96.31,67.57 -14.67,0 -26.44,-5.05 -35.16,-15.14 -8.71,-10.24 -13.14,-27.51 -13.45,-51.82zm0 -29.2l0 -156.08c-45.4,17.89 -74.6,30.58 -87.9,38.07 -23.69,13.14 -40.66,26.75 -50.91,41.12 -10.24,14.37 -15.28,29.96 -15.28,46.93 0,21.55 6.42,39.29 19.41,53.5 12.84,14.22 27.82,21.25 44.64,21.25 22.78,0 52.74,-14.98 90.04,-44.79z"/>
   <path id="_4" class="fil2" d="M7424.85 912.64l0 134.84 95.85 0 0 30.26 -95.85 0.92 0 266.15c0,26.6 3.82,44.64 11.46,53.81 7.5,9.32 17.28,13.91 29.2,13.91 9.94,0 19.42,-3.06 28.74,-9.33 9.17,-6.11 16.36,-15.28 21.4,-27.36l17.43 0c-10.39,29.5 -25.22,51.67 -44.33,66.65 -19.26,14.83 -38.98,22.32 -59.31,22.32 -13.76,0 -27.22,-3.82 -40.36,-11.46 -13.15,-7.65 -22.78,-18.65 -29.05,-32.87 -6.26,-14.22 -9.48,-36.08 -9.48,-65.74l0 -277 -65.12 0 0 -14.21c16.51,-6.58 33.33,-17.58 50.6,-33.02 17.28,-15.6 32.56,-34.09 46.17,-55.65 6.88,-11.31 16.51,-32.1 28.89,-62.22l13.76 0z"/>
   <path id="_5" class="fil2" d="M7628.32 1202.49c-0.31,60.69 14.52,108.23 44.33,142.78 29.81,34.39 64.97,51.67 105.33,51.67 26.75,0 50.14,-7.34 70.01,-22.02 19.87,-14.52 36.54,-40.05 49.99,-76.13l13.76 9.02c-6.27,41.28 -24.46,78.73 -54.58,112.21 -30.11,33.48 -67.87,50.29 -113.12,50.29 -49.23,0 -91.42,-19.1 -126.43,-57.48 -35,-38.37 -52.58,-89.88 -52.58,-154.55 0,-70.01 18.04,-124.74 53.96,-163.87 35.92,-39.29 81.02,-58.86 135.29,-58.86 45.86,0 83.62,15.14 113.12,45.4 29.51,30.27 44.34,70.78 44.34,121.54l-283.42 0zm0 -25.69l189.86 0c-1.53,-26.29 -4.59,-44.79 -9.33,-55.49 -7.49,-16.66 -18.65,-29.81 -33.47,-39.29 -14.68,-9.63 -30.12,-14.37 -46.32,-14.37 -24.77,0 -46.93,9.64 -66.5,28.9 -19.57,19.26 -30.88,46.01 -34.24,80.25z"/>
   <path id="_6" class="fil2" d="M8076.37 1307.81c-24.91,-12.23 -44.17,-29.2 -57.63,-51.21 -13.3,-21.86 -20.02,-46.01 -20.02,-72.61 0,-40.51 15.28,-75.37 45.86,-104.56 30.42,-29.2 69.55,-43.88 117.25,-43.88 38.98,0 72.76,9.48 101.35,28.44l86.68 0c12.84,0 20.33,0.3 22.32,1.07 2.14,0.76 3.67,1.98 4.43,3.82 1.84,2.75 2.75,7.49 2.75,14.37 0,7.79 -0.76,13.14 -2.29,16.2 -0.76,1.38 -2.45,2.6 -4.59,3.52 -2.29,0.91 -9.78,1.37 -22.62,1.37l-53.35 0c16.66,21.4 25.07,48.92 25.07,82.4 0,38.06 -14.52,70.78 -43.72,97.99 -29.2,27.06 -68.34,40.66 -117.56,40.66 -20.18,0 -40.82,-3.05 -62.07,-9.02 -12.99,11.47 -21.86,21.41 -26.59,29.97 -4.59,8.56 -6.88,15.74 -6.88,21.7 0,5.2 2.44,10.09 7.33,14.83 5.05,4.89 14.68,8.26 28.9,10.4 8.4,1.22 29.35,2.44 62.83,3.36 61.45,1.53 101.35,3.82 119.54,6.73 27.82,3.82 49.99,14.21 66.5,30.88 16.66,16.81 24.92,37.3 24.92,61.91 0,33.63 -15.75,65.43 -47.39,94.93 -46.63,43.57 -107.32,65.43 -182.22,65.43 -57.64,0 -106.25,-12.99 -145.84,-38.98 -22.47,-14.98 -33.63,-30.58 -33.63,-46.63 0,-7.18 1.68,-14.37 4.89,-21.55 5.04,-11.01 15.59,-26.45 31.34,-46.17 2.14,-2.75 17.27,-18.8 45.7,-48.46 -15.59,-9.32 -26.44,-17.58 -32.86,-24.92 -6.42,-7.33 -9.63,-15.74 -9.63,-25.07 0,-10.55 4.28,-22.77 12.69,-36.99 8.4,-14.07 27.97,-34.09 58.54,-59.93zm77.97 -250.25c-22.02,0 -40.51,8.72 -55.34,26.3 -14.83,17.58 -22.32,44.48 -22.32,80.71 0,47.09 10.09,83.47 30.42,109.31 15.44,19.72 35.01,29.5 58.86,29.5 22.62,0 41.27,-8.41 55.79,-25.38 14.53,-16.97 21.86,-43.56 21.86,-79.95 0,-47.23 -10.24,-84.23 -30.72,-110.98 -15.29,-19.72 -34.7,-29.51 -58.55,-29.51zm-82.09 400.83c-14.07,15.13 -24.62,29.35 -31.65,42.5 -7.18,13.14 -10.7,25.22 -10.7,36.23 0,14.21 8.72,26.75 25.99,37.6 29.66,18.5 72.77,27.67 129.02,27.67 53.66,0 93.25,-9.47 118.63,-28.43 25.53,-18.96 38.22,-39.14 38.22,-60.69 0,-15.59 -7.65,-26.6 -22.78,-33.17 -15.59,-6.58 -46.17,-10.4 -92.03,-11.62 -67.11,-1.84 -118.63,-5.2 -154.7,-10.09z"/>
   <path id="_7" class="fil2" d="M8530.55 820.92c12.38,0 23.08,4.44 31.95,13.15 8.71,8.87 13.15,19.57 13.15,31.95 0,12.53 -4.44,23.39 -13.15,32.25 -8.87,9.02 -19.57,13.46 -31.95,13.46 -12.53,0 -23.39,-4.44 -32.25,-13.46 -9.02,-8.86 -13.46,-19.72 -13.46,-32.25 0,-12.38 4.44,-23.08 13.15,-31.95 8.87,-8.71 19.72,-13.15 32.56,-13.15zm36.84 214.63l0 330.2c0,25.53 1.84,42.5 5.66,50.91 3.67,8.56 9.17,14.82 16.51,18.95 7.34,4.13 20.79,6.27 40.2,6.27l0 16.51 -199.03 0 0 -16.51c19.87,0 33.32,-1.99 40.05,-5.81 6.88,-3.82 12.23,-10.24 16.36,-19.11 3.97,-8.86 5.96,-25.99 5.96,-51.21l0 -158.68c0,-44.18 -1.38,-72.76 -3.98,-85.91 -2.14,-9.48 -5.35,-16.05 -9.93,-19.72 -4.44,-3.82 -10.55,-5.66 -18.19,-5.66 -8.41,0 -18.5,2.3 -30.43,6.73l-6.26 -16.51 123.36 -50.45 19.72 0z"/>
   <path id="_8" class="fil2" d="M9029.51 1302.31c-11,54.27 -32.71,95.7 -64.97,124.59 -32.25,28.89 -67.87,43.41 -107,43.41 -46.63,0 -87.29,-19.56 -121.84,-58.7 -34.7,-38.98 -51.98,-91.87 -51.98,-158.52 0,-64.36 19.11,-116.8 57.48,-157.15 38.37,-40.21 84.39,-60.39 138.04,-60.39 40.36,0 73.38,10.7 99.37,32.1 25.99,21.25 38.98,43.42 38.98,66.5 0,11.32 -3.67,20.49 -11.01,27.52 -7.33,7.03 -17.42,10.55 -30.57,10.55 -17.58,0 -30.73,-5.66 -39.44,-17.12 -5.35,-6.27 -8.87,-18.35 -10.55,-36.08 -1.68,-17.73 -7.64,-31.34 -18.04,-40.66 -10.55,-9.02 -24.91,-13.46 -43.41,-13.46 -29.96,0 -53.97,11.01 -72.16,33.18 -24.15,29.35 -36.23,68.02 -36.23,116.33 0,49.07 12.08,92.33 36.08,129.94 24.15,37.45 56.56,56.26 97.53,56.26 29.35,0 55.65,-9.79 78.88,-29.51 16.51,-13.6 32.41,-38.67 48,-75.06l12.84 6.27z"/>
   <path id="_9" class="fil2" d="M9709.01 836.51l0 210.05 -16.51 0c-5.35,-40.36 -14.98,-72.46 -28.89,-96.31 -13.91,-23.85 -33.78,-42.8 -59.62,-56.87 -25.68,-14.06 -52.28,-21.09 -79.8,-21.09 -31.18,0 -56.86,9.47 -77.2,28.43 -20.33,18.96 -30.57,40.66 -30.57,64.82 0,18.49 6.42,35.46 19.26,50.75 18.65,22.32 62.68,52.28 132.39,89.58 56.87,30.58 95.69,53.96 116.48,70.17 20.8,16.36 36.85,35.46 48.01,57.63 11.16,22.17 16.81,45.25 16.81,69.56 0,46.01 -17.88,85.6 -53.5,118.93 -35.77,33.33 -81.79,49.99 -137.89,49.99 -17.73,0 -34.24,-1.38 -49.84,-4.13 -9.32,-1.53 -28.43,-7.03 -57.63,-16.51 -29.04,-9.48 -47.54,-14.22 -55.34,-14.22 -7.49,0 -13.45,2.3 -17.73,6.73 -4.28,4.59 -7.49,13.91 -9.63,28.13l-16.51 0 0 -208.21 16.51 0c7.79,43.57 18.19,76.28 31.34,97.84 13.14,21.7 33.32,39.74 60.38,53.96 27.06,14.37 56.71,21.55 88.97,21.55 37.3,0 66.96,-9.93 88.51,-29.65 21.71,-19.88 32.56,-43.27 32.56,-70.17 0,-14.98 -4.12,-30.12 -12.23,-45.4 -8.25,-15.29 -20.94,-29.51 -38.21,-42.81 -11.62,-9.02 -43.57,-27.97 -95.7,-57.02 -52.13,-28.89 -89.28,-52.13 -111.29,-69.4 -22.01,-17.27 -38.83,-36.54 -50.14,-57.33 -11.47,-20.94 -17.12,-44.02 -17.12,-69.09 0,-43.57 16.81,-81.18 50.29,-112.67 33.48,-31.49 76.28,-47.24 127.95,-47.24 32.41,0 66.66,7.95 102.89,23.7 16.81,7.49 28.58,11.16 35.46,11.16 7.8,0 14.22,-2.29 19.11,-6.88 4.89,-4.74 8.87,-13.91 11.92,-27.98l16.51 0z"/>
   <path id="_10" class="fil2" d="M10028.82 1035.55c62.22,0 112.05,23.54 149.66,70.78 31.95,40.21 48,86.52 48,138.81 0,36.69 -8.86,73.83 -26.44,111.44 -17.58,37.6 -41.89,66.04 -72.77,85.15 -31.03,19.11 -65.43,28.58 -103.34,28.58 -61.91,0 -111.14,-24.61 -147.52,-73.83 -30.73,-41.58 -46.17,-88.06 -46.17,-139.73 0,-37.6 9.33,-75.05 27.98,-112.2 18.65,-37.15 43.26,-64.67 73.83,-82.4 30.43,-17.73 62.68,-26.6 96.77,-26.6zm-13.91 29.35c-15.75,0 -31.64,4.74 -47.7,14.07 -15.89,9.47 -28.89,25.83 -38.67,49.37 -9.94,23.55 -14.83,53.81 -14.83,90.81 0,59.62 11.92,110.98 35.62,154.24 23.69,43.27 55.03,64.82 93.86,64.82 28.89,0 52.74,-11.92 71.54,-35.77 18.81,-23.85 28.28,-64.82 28.28,-122.91 0,-72.76 -15.74,-129.94 -47.08,-171.67 -21.1,-28.59 -48.15,-42.96 -81.02,-42.96z"/>
   <path id="_11" class="fil2" d="M10427.35 820.92l0 544.83c0,25.53 1.84,42.5 5.51,50.75 3.82,8.26 9.47,14.68 17.27,18.96 7.64,4.28 22.17,6.42 43.26,6.42l0 16.51 -200.87 0 0 -16.51c18.8,0 31.65,-1.99 38.52,-5.81 6.88,-3.82 12.23,-10.24 16.21,-19.11 3.82,-8.86 5.81,-25.99 5.81,-51.21l0 -373.31c0,-45.86 -1.07,-73.99 -3.06,-84.38 -2.14,-10.55 -5.5,-17.73 -10.09,-21.56 -4.58,-3.82 -10.55,-5.81 -17.73,-5.81 -7.65,0 -17.43,2.45 -29.35,7.19l-7.65 -16.51 121.99 -50.45 20.18 0z"/>
   <path id="_12" class="fil2" d="M10900.48 1047.48l0 249.48c0,46.78 1.07,75.36 3.36,85.91 2.3,10.4 5.81,17.74 10.71,21.86 4.89,4.13 10.7,6.27 17.27,6.27 9.17,0 19.57,-2.6 31.19,-7.64l6.26 16.51 -122.9 50.44 -20.18 0 0 -86.06c-35.16,37.91 -62.07,61.6 -80.57,71.39 -18.49,9.78 -38.06,14.67 -58.7,14.67 -22.93,0 -42.8,-6.57 -59.77,-19.87 -16.82,-13.3 -28.59,-30.42 -35.16,-51.36 -6.57,-20.95 -9.78,-50.45 -9.78,-88.67l0 -183.14c0,-19.41 -2.14,-32.86 -6.27,-40.35 -4.28,-7.49 -10.4,-13.3 -18.65,-17.28 -8.26,-4.13 -23.24,-5.96 -44.79,-5.65l0 -16.51 144 0 0 275.31c0,38.37 6.57,63.45 19.87,75.37 13.3,12.08 29.35,18.04 48.16,18.04 12.84,0 27.36,-3.98 43.72,-12.08 16.2,-8.1 35.62,-23.54 57.94,-46.32l0 -232.36c0,-23.7 -4.28,-39.75 -12.84,-48 -8.57,-8.41 -26.3,-12.84 -53.2,-13.45l0 -16.51 140.33 0z"/>
   <path id="_13" class="fil2" d="M11118.78 912.64l0 134.84 95.85 0 0 30.26 -95.85 0.92 0 266.15c0,26.6 3.82,44.64 11.46,53.81 7.5,9.32 17.28,13.91 29.2,13.91 9.94,0 19.42,-3.06 28.74,-9.33 9.17,-6.11 16.36,-15.28 21.4,-27.36l17.43 0c-10.39,29.5 -25.22,51.67 -44.33,66.65 -19.26,14.83 -38.98,22.32 -59.31,22.32 -13.76,0 -27.22,-3.82 -40.36,-11.46 -13.15,-7.65 -22.78,-18.65 -29.05,-32.87 -6.26,-14.22 -9.48,-36.08 -9.48,-65.74l0 -277 -65.12 0 0 -14.21c16.51,-6.58 33.33,-17.58 50.6,-33.02 17.28,-15.6 32.56,-34.09 46.17,-55.65 6.88,-11.31 16.51,-32.1 28.89,-62.22l13.76 0z"/>
   <path id="_14" class="fil2" d="M11358.78 820.92c12.38,0 23.08,4.44 31.95,13.15 8.71,8.87 13.15,19.57 13.15,31.95 0,12.53 -4.44,23.39 -13.15,32.25 -8.87,9.02 -19.57,13.46 -31.95,13.46 -12.53,0 -23.39,-4.44 -32.25,-13.46 -9.02,-8.86 -13.46,-19.72 -13.46,-32.25 0,-12.38 4.44,-23.08 13.15,-31.95 8.87,-8.71 19.72,-13.15 32.56,-13.15zm36.84 214.63l0 330.2c0,25.53 1.84,42.5 5.66,50.91 3.67,8.56 9.17,14.82 16.51,18.95 7.34,4.13 20.79,6.27 40.2,6.27l0 16.51 -199.03 0 0 -16.51c19.87,0 33.32,-1.99 40.05,-5.81 6.88,-3.82 12.23,-10.24 16.36,-19.11 3.97,-8.86 5.96,-25.99 5.96,-51.21l0 -158.68c0,-44.18 -1.38,-72.76 -3.98,-85.91 -2.14,-9.48 -5.35,-16.05 -9.93,-19.72 -4.44,-3.82 -10.55,-5.66 -18.19,-5.66 -8.41,0 -18.5,2.3 -30.43,6.73l-6.26 -16.51 123.36 -50.45 19.72 0z"/>
   <path id="_15" class="fil2" d="M11710.53 1035.55c62.22,0 112.05,23.54 149.66,70.78 31.95,40.21 48,86.52 48,138.81 0,36.69 -8.86,73.83 -26.44,111.44 -17.58,37.6 -41.89,66.04 -72.77,85.15 -31.03,19.11 -65.43,28.58 -103.34,28.58 -61.91,0 -111.14,-24.61 -147.52,-73.83 -30.73,-41.58 -46.17,-88.06 -46.17,-139.73 0,-37.6 9.33,-75.05 27.98,-112.2 18.65,-37.15 43.26,-64.67 73.83,-82.4 30.43,-17.73 62.68,-26.6 96.77,-26.6zm-13.91 29.35c-15.75,0 -31.64,4.74 -47.7,14.07 -15.89,9.47 -28.89,25.83 -38.67,49.37 -9.94,23.55 -14.83,53.81 -14.83,90.81 0,59.62 11.92,110.98 35.62,154.24 23.69,43.27 55.03,64.82 93.86,64.82 28.89,0 52.74,-11.92 71.54,-35.77 18.81,-23.85 28.28,-64.82 28.28,-122.91 0,-72.76 -15.74,-129.94 -47.08,-171.67 -21.1,-28.59 -48.15,-42.96 -81.02,-42.96z"/>
   <path id="_16" class="fil2" d="M12087.05 1121.62c48,-57.33 93.71,-86.07 137.12,-86.07 22.32,0 41.58,5.66 57.64,16.82 16.2,11.16 28.89,29.65 38.52,55.34 6.57,18.03 9.78,45.55 9.78,82.55l0 175.49c0,25.84 2.14,43.26 6.27,52.59 3.21,7.34 8.56,13.14 15.75,17.27 7.33,4.13 20.79,6.27 40.35,6.27l0 16.51 -202.7 0 0 -16.51 8.56 0c18.95,0 32.25,-2.9 39.9,-8.71 7.49,-5.81 12.84,-14.37 15.74,-25.53 1.23,-4.44 1.84,-18.5 1.84,-41.89l0 -168.92c0,-37.45 -4.89,-64.82 -14.52,-81.79 -9.64,-16.96 -25.84,-25.37 -48.77,-25.37 -35.31,0 -70.47,19.41 -105.48,58.39l0 217.69c0,27.67 1.68,44.64 4.89,51.21 4.28,8.56 10.09,14.83 17.43,18.96 7.34,3.97 22.16,5.96 44.64,5.96l0 16.51 -203.63 0 0 -16.51 9.02 0c20.95,0 35.01,-5.2 42.35,-15.75 7.34,-10.54 11,-30.72 11,-60.38l0 -152.26c0,-49.22 -1.07,-79.18 -3.36,-89.89 -2.29,-10.85 -5.65,-18.19 -10.24,-22.01 -4.59,-3.82 -10.85,-5.81 -18.5,-5.81 -8.41,0 -18.34,2.3 -29.96,6.73l-6.73 -16.51 123.83 -50.45 19.26 0 0 86.07z"/>
   <path id="_17" class="fil2" d="M12690.58 1035.55l0 139.42 -14.68 0c-11.31,-43.72 -25.83,-73.38 -43.56,-89.12 -17.58,-15.75 -40.21,-23.7 -67.57,-23.7 -20.79,0 -37.61,5.5 -50.45,16.51 -12.69,11.01 -19.11,23.24 -19.11,36.69 0,16.66 4.74,31.03 14.07,42.96 9.17,12.23 27.97,25.22 56.25,38.98l65.43 31.64c60.54,29.66 90.81,68.64 90.81,116.95 0,37.3 -14.07,67.41 -42.35,90.19 -28.13,22.78 -59.77,34.24 -94.63,34.24 -25.07,0 -53.81,-4.43 -85.91,-13.14 -9.94,-2.91 -18.04,-4.28 -24.3,-4.28 -6.73,0 -12.23,3.67 -16.06,11l-14.67 0 0 -146.75 14.67 0c8.41,41.88 24.31,73.53 48,94.78 23.55,21.25 49.99,31.79 79.34,31.79 20.49,0 37.3,-5.96 50.3,-18.03 12.99,-12.08 19.57,-26.76 19.57,-43.72 0,-20.49 -7.34,-37.76 -21.86,-51.83 -14.53,-14.06 -43.42,-31.64 -86.83,-53.04 -43.27,-21.41 -71.55,-40.67 -85,-58.09 -13.3,-16.97 -20.03,-38.53 -20.03,-64.52 0,-33.78 11.62,-62.06 34.71,-84.84 23.08,-22.78 52.89,-34.09 89.58,-34.09 16.2,0 35.62,3.52 58.7,10.55 15.13,4.59 25.22,6.88 30.27,6.88 4.89,0 8.56,-1.07 11.31,-3.21 2.6,-2.14 5.81,-6.88 9.32,-14.22l14.68 0z"/>
   <path id="_18" class="fil2" d="M13476.78 1173.29l0 177.79c0,38.21 4.13,61.91 12.54,71.08 11.31,13.15 28.43,19.72 51.36,19.72l23.24 0 0 16.51 -260.49 0 0 -16.51 22.93 0c25.68,0 44.18,-8.41 55.18,-25.07 5.96,-9.17 9.02,-31.19 9.02,-65.73l0 -393.49c0,-38.22 -3.97,-61.91 -12.08,-71.09 -11.77,-13.14 -29.04,-19.72 -52.12,-19.72l-22.93 0 0 -16.51 222.88 0c54.42,0 97.23,5.66 128.72,16.82 31.33,11.16 57.78,30.11 79.34,56.71 21.55,26.6 32.25,58.09 32.25,94.48 0,49.68 -16.36,90.04 -49.07,121.07 -32.71,31.03 -78.88,46.63 -138.65,46.63 -14.68,0 -30.42,-1.07 -47.39,-3.21 -17.12,-1.99 -35.32,-5.2 -54.73,-9.48zm0 -25.68c15.75,3.05 29.81,5.35 42.04,6.72 12.08,1.53 22.62,2.29 31.18,2.29 31.04,0 57.64,-12.07 80.11,-36.07 22.47,-24 33.78,-55.04 33.78,-93.1 0,-26.29 -5.35,-50.75 -16.05,-73.23 -10.7,-22.47 -25.99,-39.28 -45.55,-50.44 -19.72,-11.16 -42.04,-16.82 -66.96,-16.82 -15.29,0 -34.7,2.91 -58.55,8.56l0 252.09z"/>
   <path id="_19" class="fil2" d="M14826 1290.54l14.68 3.21 -52.28 164.64 -470.54 0 0 -16.51 22.78 0c25.68,0 44.03,-8.25 55.04,-24.92 6.26,-9.48 9.32,-31.49 9.32,-65.88l0 -393.49c0,-37.91 -4.13,-61.61 -12.54,-71.09 -11.61,-13.14 -28.89,-19.72 -51.82,-19.72l-22.78 0 0 -16.51 275.17 0 0 16.51c-32.26,-0.3 -54.88,2.6 -68.03,8.87 -12.99,6.11 -21.86,14.06 -26.6,23.39 -4.74,9.48 -7.18,32.1 -7.18,67.72l0 383.4c0,24.92 2.44,41.88 7.18,51.21 3.52,6.42 9.18,11.01 16.67,14.06 7.33,2.91 30.72,4.44 70.01,4.44l44.33 0c46.78,0 79.5,-3.37 98.3,-10.25 18.8,-6.87 36.08,-19.1 51.67,-36.53 15.44,-17.43 31.03,-44.95 46.62,-82.55z"/>
   <path id="_20" class="fil2" d="M15008.38 912.64l0 134.84 95.85 0 0 30.26 -95.85 0.92 0 266.15c0,26.6 3.82,44.64 11.46,53.81 7.5,9.32 17.28,13.91 29.2,13.91 9.94,0 19.42,-3.06 28.74,-9.33 9.17,-6.11 16.36,-15.28 21.4,-27.36l17.43 0c-10.39,29.5 -25.22,51.67 -44.33,66.65 -19.26,14.83 -38.98,22.32 -59.31,22.32 -13.76,0 -27.22,-3.82 -40.36,-11.46 -13.15,-7.65 -22.78,-18.65 -29.05,-32.87 -6.26,-14.22 -9.48,-36.08 -9.48,-65.74l0 -277 -65.12 0 0 -14.21c16.51,-6.58 33.33,-17.58 50.6,-33.02 17.28,-15.6 32.56,-34.09 46.17,-55.65 6.88,-11.31 16.51,-32.1 28.89,-62.22l13.76 0z"/>
   <path id="_21" class="fil2" d="M15432.9 1411c-20.03,21.25 -39.6,36.38 -58.71,45.56 -19.11,9.17 -39.74,13.75 -61.76,13.75 -44.79,0 -83.92,-18.65 -117.4,-56.1 -33.48,-37.45 -50.14,-85.61 -50.14,-144.31 0,-58.7 18.5,-112.51 55.49,-161.28 37.15,-48.76 84.69,-73.07 142.93,-73.07 36.08,0 66.04,11.62 89.59,34.7l0 -75.97c0,-46.63 -1.07,-75.22 -3.37,-85.92 -2.29,-10.7 -5.81,-18.03 -10.55,-21.86 -4.89,-3.82 -10.85,-5.81 -18.03,-5.81 -7.8,0 -18.04,2.45 -31.04,7.19l-5.81 -16.51 122.91 -50.45 20.18 0 0 474.2c0,47.85 1.07,77.05 3.36,87.6 2.3,10.39 5.81,17.89 10.86,22.01 4.89,4.13 10.7,6.27 17.27,6.27 8.1,0 18.8,-2.6 32.41,-7.64l4.89 16.51 -122.45 50.44 -20.63 0 0 -59.31zm0 -31.34l0 -210.19c-1.84,-20.49 -7.19,-39.14 -16.21,-55.8 -8.87,-16.82 -20.79,-29.35 -35.62,-37.91 -14.83,-8.41 -29.2,-12.69 -43.26,-12.69 -26.29,0 -49.84,11.77 -70.47,35.31 -27.21,31.03 -40.82,76.28 -40.82,135.9 0,60.23 13.15,106.4 39.44,138.5 26.29,31.95 55.65,48 87.9,48 27.37,0 53.66,-13.75 79.04,-41.12z"/>
   <path id="_22" class="fil2" d="M15687.88 1371.25c13.91,0 25.68,4.9 35.32,14.53 9.47,9.63 14.21,21.25 14.21,35 0,13.61 -4.89,25.38 -14.52,35.01 -9.63,9.63 -21.25,14.52 -35.01,14.52 -13.6,0 -25.37,-4.89 -35,-14.52 -9.64,-9.63 -14.53,-21.4 -14.53,-35.01 0,-13.91 4.89,-25.68 14.53,-35.31 9.63,-9.48 21.4,-14.22 35,-14.22z"/>
   <path id="_23" class="fil2" d="M13268.58 1636.33l0 17.43c-45.1,-22.63 -82.86,-49.23 -113.13,-79.65 -42.95,-43.26 -76.28,-94.32 -99.52,-153.17 -23.39,-58.86 -35,-119.85 -35,-183.14 0,-92.49 22.93,-177.02 68.63,-253.15 45.71,-76.29 105.48,-130.86 179.02,-163.73l0 19.26c-36.85,20.34 -67.11,48 -90.81,83.17 -23.69,35.16 -41.43,79.64 -53.05,133.6 -11.77,53.97 -17.58,110.38 -17.58,169.08 0,63.74 4.9,121.68 14.83,173.81 7.8,41.12 17.28,74.14 28.28,99.06 11.16,24.92 26.14,48.77 44.79,71.7 18.81,22.93 43.27,44.94 73.54,65.73z"/>
   <path id="_24" class="fil2" d="M13784.97 840.18l0 -19.26c45.4,22.32 83.31,48.77 113.58,79.19 42.65,43.57 75.82,94.78 99.06,153.48 23.39,58.55 35.01,119.7 35.01,183.29 0,92.49 -22.78,177.02 -68.49,253.15 -45.55,76.29 -105.32,130.86 -179.16,163.73l0 -17.43c36.84,-20.64 67.26,-48.31 91.11,-83.31 23.85,-35.01 41.43,-79.65 53.05,-133.76 11.46,-54.12 17.27,-110.38 17.27,-169.08 0,-63.59 -4.89,-121.53 -14.83,-173.96 -7.49,-41.13 -16.81,-73.99 -28.13,-98.76 -11.16,-24.76 -26.14,-48.61 -44.79,-71.54 -18.5,-22.93 -43.11,-44.95 -73.68,-65.74z"/>
  </g>
 </g>
</svg>
