<?xml version="1.0" encoding="UTF-8"?>
<!DOCTYPE svg PUBLIC "-//W3C//DTD SVG 1.1//EN" "http://www.w3.org/Graphics/SVG/1.1/DTD/svg11.dtd">
<!-- Creator: CorelDRAW 2023 -->
<svg xmlns="http://www.w3.org/2000/svg" xml:space="preserve" width="401.32mm" height="160.02mm" version="1.1" style="shape-rendering:geometricPrecision; text-rendering:geometricPrecision; image-rendering:optimizeQuality; fill-rule:evenodd; clip-rule:evenodd"
viewBox="0 0 40132 16002"
 xmlns:xlink="http://www.w3.org/1999/xlink"
 xmlns:xodm="http://www.corel.com/coreldraw/odm/2003">
 <defs>
  <style type="text/css">
   <![CDATA[
    .fil0 {fill:blue}
    .fil1 {fill:#EA5921;fill-rule:nonzero}
   ]]>
  </style>
 </defs>
 <g id="Layer_x0020_1">
  <metadata id="CorelCorpID_0Corel-Layer"/>
  <g id="_2373815790704">
   <path class="fil0" d="M21348.7 7531.1c0,-396.91 311.72,-728.13 728.14,-728.13 391.81,0 711.2,324.18 711.2,736.6 0,382.29 -318.36,719.67 -694.27,719.67l-50.8 0c-378.79,0 -694.27,-343.63 -694.27,-728.14zm-5435.61 -2226.74c-407.08,0 -914.4,-150.71 -914.4,389.47 0,517.41 506.93,1872.22 684.53,2287.27 252.52,590.14 734.28,1417.85 1247.27,1724.54 83.14,49.71 182.62,51.87 213.74,150.33 26,82.29 38.71,230.88 46.22,326.31 19.01,241.37 7.79,477.23 37.72,707.35 60.3,463.76 230.21,728.2 474.24,1015.9 173.59,204.66 578.97,538.69 826.76,663.37 338.44,170.29 711.02,270.81 1219.33,270.81 1070.27,0 1691.57,-508.64 2144.55,-1132.06 552.87,-760.91 437.79,-1586.67 437.79,-2804.95 589.44,-137.32 1126.07,-623.23 1126.07,-1337.73l0 -67.74c0,-691.48 -619.43,-1354.66 -1295.41,-1354.66l-143.93 0c-668.95,0 -1303.87,650.97 -1303.87,1320.8l0 135.46c0,432.15 283.55,871.79 601.05,1083.83 149.79,100.04 221.96,109.82 381.09,186.18 0,214.37 -11.08,1192.13 3.74,1317.06 58.76,495.44 -67.38,789.81 -237.03,1074.32 -317.04,531.68 -815.03,995.29 -1654.78,995.29l-211.67 0c-586.02,0 -1138.53,-385.66 -1411.11,-705.56 -401.28,-470.93 -451.56,-899.04 -451.56,-1724.38 0,-22.09 209.06,-111.66 241.92,-130.62 92.97,-53.64 140.65,-96.47 218.21,-162.79 313.01,-267.67 724.12,-1015.5 888.31,-1389.22 176.05,-400.71 725.9,-1828.22 725.9,-2313.64l0 -84.67c0,-247.21 -152.68,-372.53 -397.94,-372.53 -272.99,0 -519.02,56.3 -761.13,-17.8 -139.51,-42.69 -108.41,-118.46 -211.38,-203.49 -401.73,-331.78 -822.43,45.36 -822.43,449.89 0,409.1 383.99,734.57 750.08,513.01 103.83,-62.84 63.48,-64.47 216.55,-88.26 169.82,-26.39 391.46,-35.28 582.78,-35.28 -3.18,142.86 -204.92,830.13 -255.05,981.08 -99.8,300.48 -240.89,595.36 -363.42,881.19 -172.32,401.97 -599.94,1380.46 -1108.74,1380.46 -528.35,0 -976.39,-980.49 -1156.13,-1400.8 -125.1,-292.53 -271.69,-599 -373.24,-905.23 -104.52,-315.17 -187.39,-677.38 -265.56,-1012.9 195.07,0 453.69,0.53 615.11,36.82 94.91,21.34 146.45,234.11 443.22,234.11 281.73,0 499.54,-288.83 499.54,-575.73 0,-284.61 -212.68,-584.21 -482.6,-584.21 -221.29,0 -250.09,65.96 -388.32,170.49 -75.35,56.98 -278.88,108.91 -416.02,108.91z"/>
   <path class="fil0" d="M13576.29 5414.43l50.8 0c120.09,0 238.6,-147.65 281.53,-234.93 52.11,-105.94 65.62,-305.91 79.79,-445.15 41.88,-411.67 23.94,-561.64 152.76,-897.11 196.5,-511.7 440.18,-951.51 783.35,-1316.38 680.01,-723.01 1537.3,-1263.57 2935.91,-1263.57 1391.78,0 2266.22,536.44 2940.08,1259.39 347.3,372.6 578.76,801.18 782.94,1316.8 106.46,268.83 142.89,537.01 154.72,895.15 9.29,281.48 98.6,685.8 364.07,685.8l42.33 0c215.99,0 254,-334.14 254,-541.87 0,-2322.64 -2114.06,-4250.27 -4445.01,-4250.27l-186.27 0c-721.73,0 -1441.19,207.53 -1921.94,448.73 -1042.5,523.04 -1875.24,1353.7 -2278.42,2462.91 -99.79,274.52 -187.26,625.41 -218.64,966.71 -26.8,291.53 -69.19,913.79 228,913.79z"/>
   <path class="fil0" d="M3526.33 6506.63l0 4453.48 660.4 0 0 -3048.01c54.69,36.62 551.95,641.87 662.57,759.84 275.97,294.35 1939.55,2288.17 1987.51,2288.17l254 0 0 -4453.48c0,-19.51 -5.89,-25.4 -25.4,-25.4l-609.6 0c-45.6,0 -25.4,296.38 -25.4,355.6l0 2700.87c-440.86,-507.19 -875.35,-1037.15 -1326.87,-1534.87 -223.24,-246.08 -448.85,-514.46 -661.94,-768.93 -107.93,-128.88 -218.51,-254 -329.51,-381.69 -50.4,-57.99 -287.41,-370.98 -348.69,-370.98l-211.67 0c-19.51,0 -25.4,5.89 -25.4,25.4z"/>
   <path class="fil0" d="M9351.41 10333.57l-448.73 0 0 -3217.34 651.93 0c986.03,0 1710.27,609.54 1710.27,1617.14 0,1097.9 -801.4,1600.2 -1913.47,1600.2zm-1109.13 -3826.94l0 4428.08c0,19.5 5.89,25.4 25.4,25.4l1176.87 0c1056.75,0 1923.74,-404.73 2296.7,-1276.24 90.06,-210.45 210.19,-691.95 182.95,-1008.6 -37.65,-437.75 -62.03,-643.09 -210.12,-975.3 -113.88,-255.49 -312,-511.3 -518.77,-675.03 -462.95,-366.6 -1019.65,-543.71 -1843.9,-543.71l-1083.73 0c-19.51,0 -25.4,5.89 -25.4,25.4z"/>
   <path class="fil0" d="M25700.58 8877.3l-753.54 0 0 -1761.07 787.4 0c1512.49,0 1553.79,1761.07 -33.86,1761.07zm-1413.94 -2370.67l0 4428.08c0,19.5 5.89,25.4 25.4,25.4l635 0 0 -1456.27c249.48,0 667.12,10.72 897.33,-9.8l949.14 1465.59 702 0.48 -1019.95 -1572.23c213.17,-19.99 619.03,-321.79 733.16,-458.7 165.4,-198.41 320.66,-503.74 320.66,-864.68l0 -135.46c0,-512.89 -288.82,-904.12 -599.4,-1110.87 -347.98,-231.65 -796.89,-336.94 -1373.34,-336.94l-1244.6 0c-19.51,0 -25.4,5.89 -25.4,25.4z"/>
   <path class="fil0" d="M31855.86 9131.3c0,1026.09 638.29,1896.54 1651,1896.54l211.67 0c540.05,0 988.91,-287.11 1228.68,-591.65 261.28,-331.85 422.32,-807.57 422.32,-1398.02l0 -2531.54c0,-19.51 -5.89,-25.4 -25.4,-25.4l-609.6 0c-45.17,0 -25.4,234.33 -25.4,287.87l0 2192.87c0,773.14 -313.32,1447.8 -1058.34,1447.8l-76.2 0c-735.95,0 -1066.8,-672.59 -1066.8,-1430.87l0 -2497.67 -651.93 0 0 2650.07z"/>
   <path class="fil0" d="M36343.2 7615.77c0,1586.02 2506.14,976.49 2506.14,2057.4 0,459.47 -577.51,719.67 -1049.87,719.67 -368.21,0 -570.08,-36.64 -902.91,-155.43 -113.69,-40.58 -216.17,-82.19 -316.3,-132.43 -55.54,-27.87 -265.41,-152.62 -296.33,-160.88l-144.66 533.2c241.29,161.29 357.47,248.67 656.26,369.14 375.59,151.44 648.91,181.4 1063.21,181.4 573.96,0 1051.68,-248.23 1335.75,-543.85 313.94,-326.72 422.58,-954.25 171.32,-1428.89 -477.27,-901.55 -2362.21,-680.77 -2362.21,-1413.93l0 -42.34c0,-363.71 475.46,-550.33 880.54,-550.33 522.98,0 1199.99,377.29 1244.6,381l145.72 -532.9c-313.97,-209.55 -850.08,-483.1 -1364.92,-483.1l-127.01 0c-742.32,0 -1439.33,461.68 -1439.33,1202.27z"/>
   <path class="fil0" d="M12653.42 6506.63l0 482.6c0,19.51 5.89,25.4 25.4,25.4l618.07 0 0 3420.54 -711.21 0 0 524.94 2082.81 0 0 -524.94 -711.2 0 0 -3420.54 618.07 0c19.5,0 25.4,-5.89 25.4,-25.4l0 -482.6c0,-19.51 -5.9,-25.4 -25.4,-25.4l-1896.54 0c-19.51,0 -25.4,5.89 -25.4,25.4z"/>
   <path class="fil0" d="M605.33 6506.63l0 482.6c0,19.51 5.89,25.4 25.4,25.4l609.6 0 0 3420.54 -711.2 0 0 524.94 2091.27 0 0 -524.94 -719.67 0 0 -3420.54 618.07 0c19.51,0 25.4,-5.89 25.4,-25.4l0 -482.6c0,-19.51 -5.89,-25.4 -25.4,-25.4l-1888.07 0c-19.51,0 -25.4,5.89 -25.4,25.4z"/>
   <path class="fil0" d="M27995.05 7065.43l1219.2 0 0 3894.68 651.94 0 0 -3894.68 1227.66 0 0 -558.8c0,-19.51 -5.89,-25.4 -25.4,-25.4l-3073.4 0 0 584.2z"/>
   <path class="fil0" d="M37587.8 5118.1l0 -152.4c0,-454.92 449.66,-872.07 922.87,-872.07l42.33 0c485.93,0 922.87,423.72 922.87,905.93l0 84.67c0,514.73 -432.04,869.15 -924.31,905.17 -484.31,35.44 -963.76,-423.6 -963.76,-871.3zm-135.47 -76.2c0,588.28 486.71,1075.27 1075.27,1075.27 563.82,0 1075.27,-464.68 1075.27,-1016.01l0 -127c0,-513.19 -500.25,-1007.53 -1016,-1007.53l-110.07 0c-554.02,0 -1024.47,511.56 -1024.47,1075.27z"/>
   <path class="fil0" d="M38282.07 4948.76l0 -397.93 245.53 0c172.09,0 347.14,24.45 347.14,194.73 0,237.55 -348.07,203.2 -592.67,203.2zm-152.4 635.01l152.4 0 0 -499.54c265.98,0 296.62,-16.08 435.26,191.28 60.92,91.12 132.31,212.82 182.81,308.26l186.26 0c-23.82,-102.25 -270.4,-484.21 -372.53,-508.01l0 -16.93c380.34,0 509.2,-635 -93.13,-635l-491.07 0 0 1159.94z"/>
  </g>
  <path class="fil1" d="M1249.45 14916.52l0 -1490.27 482.53 0c182.82,0 301.8,7.29 357.31,22.2 85.33,22.55 156.79,71.12 214.38,146.05 57.58,74.93 86.38,171.71 86.38,290.35 0,91.58 -16.65,168.24 -49.61,230.69 -33.3,62.44 -75.28,111.35 -126.27,147.08 -50.99,35.38 -103.03,58.97 -155.76,70.42 -71.8,14.22 -175.53,21.51 -311.51,21.51l-195.65 0 0 561.97 -301.8 0zm301.8 -1238.42l0 424.6 164.08 0c118.29,0 197.04,-7.98 236.93,-23.59 39.9,-15.61 71.12,-39.89 93.67,-73.54 22.54,-33.3 33.99,-71.81 33.99,-116.21 0,-54.46 -15.96,-99.21 -47.52,-134.6 -31.92,-35.38 -71.81,-57.58 -120.72,-66.6 -35.73,-6.59 -107.54,-10.06 -215.77,-10.06l-144.66 0z"/>
  <path id="_1" class="fil1" d="M3260.06 14575.17l285.15 47.88c-36.42,104.41 -94.35,183.85 -173.1,238.66 -79.09,54.46 -177.96,81.87 -296.25,81.87 -187.67,0 -326.78,-61.4 -416.62,-184.2 -71.12,-98.52 -106.85,-222.71 -106.85,-372.92 0,-179 46.84,-319.49 140.15,-420.78 93.32,-101.64 211.61,-152.29 354.53,-152.29 160.27,0 286.88,53.07 379.85,159.22 92.62,106.15 137.02,268.85 132.86,488.09l-713.91 0c2.08,84.64 24.98,150.55 69.03,197.73 43.71,47.18 98.52,70.77 163.74,70.77 44.75,0 82.21,-12.15 112.39,-36.43 30.53,-24.28 53.42,-63.48 69.03,-117.6zm16.65 -289.31c-2.08,-82.91 -23.24,-146.04 -63.82,-189.06 -40.59,-43.36 -89.85,-64.87 -148.13,-64.87 -62.09,0 -113.43,22.9 -154.02,68.34 -40.59,45.45 -60.36,107.54 -59.67,185.59l425.64 0z"/>
  <path id="_2" class="fil1" d="M4065.9 14916.52l-285.15 0 0 -1080.24 264.34 0 0 153.33c45.44,-72.5 86.37,-120.02 122.8,-142.57 36.42,-22.55 77.7,-33.65 123.84,-33.65 65.22,0 128,18.04 188.36,53.77l-88.45 249.07c-48.22,-31.22 -92.97,-46.83 -134.25,-46.83 -40.24,0 -74.24,11.1 -101.99,32.95 -27.75,22.2 -49.61,61.75 -65.56,119.34 -15.96,57.58 -23.94,178.3 -23.94,361.81l0 333.02z"/>
  <path id="_3" class="fil1" d="M4478.36 13836.28l158.18 0 0 -81.52c0,-90.88 9.71,-158.88 29.14,-203.63 19.43,-45.09 55.16,-81.52 107.19,-109.61 52.38,-28.1 118.29,-42.33 198.08,-42.33 81.52,0 161.65,12.15 240.05,36.43l-36.42 198.42c-46.49,-10.75 -91.24,-16.3 -134.25,-16.3 -42.32,0 -72.5,9.71 -90.89,29.14 -18.38,19.42 -27.75,56.89 -27.75,112.39l0 77.01 214.38 0 0 224.79 -214.38 0 0 855.45 -285.15 0 0 -855.45 -158.18 0 0 -224.79z"/>
  <path id="_4" class="fil1" d="M5920.75 14575.17l285.15 47.88c-36.42,104.41 -94.35,183.85 -173.1,238.66 -79.09,54.46 -177.96,81.87 -296.25,81.87 -187.67,0 -326.78,-61.4 -416.62,-184.2 -71.12,-98.52 -106.85,-222.71 -106.85,-372.92 0,-179 46.84,-319.49 140.15,-420.78 93.32,-101.64 211.61,-152.29 354.53,-152.29 160.27,0 286.88,53.07 379.85,159.22 92.62,106.15 137.02,268.85 132.86,488.09l-713.91 0c2.08,84.64 24.98,150.55 69.03,197.73 43.71,47.18 98.52,70.77 163.74,70.77 44.75,0 82.21,-12.15 112.39,-36.43 30.53,-24.28 53.42,-63.48 69.03,-117.6zm16.65 -289.31c-2.08,-82.91 -23.24,-146.04 -63.82,-189.06 -40.59,-43.36 -89.85,-64.87 -148.13,-64.87 -62.09,0 -113.43,22.9 -154.02,68.34 -40.59,45.45 -60.36,107.54 -59.67,185.59l425.64 0z"/>
  <path id="_5" class="fil1" d="M7394.71 14156.82l-280.98 49.95c-9.37,-55.85 -30.88,-97.83 -64.53,-126.27 -33.64,-28.1 -77.01,-42.32 -130.43,-42.32 -71.11,0 -128,24.63 -170.33,73.89 -42.32,49.26 -63.48,131.47 -63.48,246.99 0,128.35 21.51,218.89 64.53,271.96 43.01,53.08 100.6,79.44 172.75,79.44 54.12,0 98.52,-15.61 132.86,-46.48 34.69,-30.87 58.97,-83.95 73.2,-159.57l280.98 47.87c-29.14,129.04 -84.99,226.52 -167.55,292.43 -82.56,65.91 -193.22,98.87 -332.33,98.87 -157.49,0 -283.41,-49.96 -377.07,-149.51 -94.01,-99.91 -140.84,-237.98 -140.84,-414.55 0,-178.65 47.18,-317.41 141.18,-416.97 94.01,-99.56 221.32,-149.16 381.94,-149.16 131.13,0 235.54,28.44 313.25,84.99 77.35,56.54 132.86,142.57 166.85,258.44z"/>
  <path id="_6" class="fil1" d="M8104.81 13836.28l0 226.87 -195.65 0 0 437.44c0,88.81 1.73,140.49 5.55,155.06 3.81,14.57 12.14,26.71 25.67,36.43 13.18,9.36 29.14,14.22 48.22,14.22 26.71,0 64.87,-9.02 115.17,-27.4l23.93 222.01c-66.26,28.45 -141.19,42.67 -225.13,42.67 -51.35,0 -97.48,-8.67 -138.76,-26.02 -41.28,-17.34 -71.46,-39.89 -90.54,-67.3 -19.43,-27.75 -32.61,-64.87 -40.24,-112.04 -5.9,-33.31 -9.02,-100.6 -9.02,-202.25l0 -472.82 -131.13 0 0 -226.87 131.13 0 0 -214.38 285.15 -168.59 0 382.97 195.65 0z"/>
  <path id="_7" class="fil1" d="M8884.98 13426.25l595.97 0c118.29,0 206.06,4.86 263.99,14.57 58.28,10.06 109.96,30.53 155.75,61.4 45.79,31.22 83.95,72.5 114.48,124.19 30.53,51.69 45.79,109.97 45.79,174.14 0,69.38 -18.73,133.56 -56.2,191.49 -37.46,58.28 -88.46,101.64 -152.63,130.78 90.54,26.71 159.92,71.81 208.83,135.64 48.57,63.83 72.85,138.76 72.85,225.13 0,67.99 -15.61,133.91 -47.18,198.08 -31.57,64.18 -74.58,115.52 -129.39,154.02 -54.46,38.16 -121.76,61.75 -201.9,70.77 -49.95,5.2 -171.02,8.67 -362.85,10.06l-507.51 0 0 -1490.27zm301.8 247.69l0 343.42 197.04 0c116.9,0 189.75,-1.73 218.2,-5.2 51.34,-5.9 91.92,-23.59 121.41,-53.07 29.49,-29.49 44.06,-68 44.06,-115.87 0,-46.14 -12.84,-83.25 -38.16,-112.05 -25.33,-28.79 -63.14,-46.13 -113.09,-52.03 -29.83,-3.47 -115.52,-5.2 -256.7,-5.2l-172.76 0zm0 591.11l0 399.62 278.91 0c108.23,0 177.26,-3.12 206.4,-9.02 44.75,-8.32 81.17,-28.09 109.27,-59.66 28.1,-31.92 42.32,-73.89 42.32,-126.97 0,-45.09 -10.75,-82.91 -32.61,-114.13 -21.5,-31.22 -53.07,-54.11 -94,-68.33 -40.94,-14.23 -130.09,-21.51 -267.11,-21.51l-243.18 0z"/>
  <polygon id="_8" class="fil1" points="10386,14916.52 10386,13426.25 10671.15,13426.25 10671.15,14916.52 "/>
  <path id="_9" class="fil1" d="M11588.69 14575.17l285.15 47.88c-36.42,104.41 -94.35,183.85 -173.1,238.66 -79.09,54.46 -177.96,81.87 -296.25,81.87 -187.67,0 -326.78,-61.4 -416.62,-184.2 -71.12,-98.52 -106.85,-222.71 -106.85,-372.92 0,-179 46.84,-319.49 140.15,-420.78 93.32,-101.64 211.61,-152.29 354.53,-152.29 160.27,0 286.88,53.07 379.85,159.22 92.62,106.15 137.02,268.85 132.86,488.09l-713.91 0c2.08,84.64 24.98,150.55 69.03,197.73 43.71,47.18 98.52,70.77 163.74,70.77 44.75,0 82.21,-12.15 112.39,-36.43 30.53,-24.28 53.42,-63.48 69.03,-117.6zm16.65 -289.31c-2.08,-82.91 -23.24,-146.04 -63.82,-189.06 -40.59,-43.36 -89.85,-64.87 -148.13,-64.87 -62.09,0 -113.43,22.9 -154.02,68.34 -40.59,45.45 -60.36,107.54 -59.67,185.59l425.64 0z"/>
  <path id="_10" class="fil1" d="M13104.28 14916.52l-285.15 0 0 -550.53c0,-116.55 -6.24,-191.83 -18.38,-225.82 -12.49,-34.35 -32.27,-60.71 -60.02,-79.79 -27.75,-19.08 -61.05,-28.45 -99.9,-28.45 -49.96,0 -94.71,13.53 -134.25,40.59 -39.9,27.06 -66.95,63.14 -81.52,107.54 -14.92,44.75 -22.2,127.31 -22.2,248.03l0 488.43 -285.15 0 0 -1080.24 264.33 0 0 158.54c94.7,-121.07 213.69,-181.43 357.65,-181.43 63.14,0 121.07,11.45 173.45,33.99 52.73,22.9 92.28,51.69 118.99,86.73 27.05,35.38 45.79,75.28 56.19,120.02 10.76,44.75 15.96,108.58 15.96,191.84l0 670.55z"/>
  <path id="_11" class="fil1" d="M14383.99 14916.52l-264.34 0 0 -158.53c-44.05,61.75 -96.44,107.88 -156.45,139.1 -60.01,30.88 -120.72,46.49 -181.77,46.49 -124.54,0 -231.04,-49.96 -319.84,-150.21 -88.46,-100.25 -132.86,-239.7 -132.86,-419.05 0,-183.16 43.01,-322.61 129.39,-418.01 86.38,-95.4 195.3,-142.92 327.12,-142.92 120.72,0 225.49,50.3 313.6,150.55l0 -537.69 285.15 0 0 1490.27zm-761.79 -560.93c0,115.51 15.96,199.12 47.53,250.8 46.13,74.93 110.31,112.4 192.87,112.4 65.56,0 121.41,-28.1 167.2,-84.3 46.14,-56.19 69.04,-139.8 69.04,-251.5 0,-124.53 -22.2,-214.03 -66.95,-268.84 -44.75,-54.81 -101.64,-82.22 -171.37,-82.22 -67.65,0 -124.19,27.06 -169.98,81.18 -45.44,54.11 -68.34,134.94 -68.34,242.48z"/>
  <path id="_12" class="fil1" d="M15176.31 14363.22c0,-95.05 23.24,-186.98 70.07,-275.78 46.83,-89.16 113.09,-156.8 198.77,-203.63 85.68,-46.83 181.08,-70.42 286.88,-70.42 163.39,0 296.95,53.07 401.36,159.22 104.42,106.5 156.45,240.4 156.45,402.75 0,163.74 -52.72,299.37 -157.83,406.91 -105.46,107.54 -237.98,161.31 -397.89,161.31 -98.87,0 -193.23,-22.55 -283.07,-67.3 -89.5,-44.75 -157.84,-110.31 -204.67,-197.04 -46.83,-86.37 -70.07,-191.83 -70.07,-316.02zm293.47 15.26c0,107.19 25.32,189.41 75.97,246.3 50.99,57.24 113.44,85.68 188.02,85.68 74.23,0 136.68,-28.44 186.98,-85.68 50.3,-56.89 75.62,-139.8 75.62,-248.38 0,-105.8 -25.32,-187.32 -75.62,-244.21 -50.3,-57.24 -112.75,-85.69 -186.98,-85.69 -74.58,0 -137.03,28.45 -188.02,85.69 -50.65,56.89 -75.97,139.1 -75.97,246.29z"/>
  <path id="_13" class="fil1" d="M16389.41 13836.28l158.18 0 0 -81.52c0,-90.88 9.71,-158.88 29.14,-203.63 19.43,-45.09 55.16,-81.52 107.19,-109.61 52.38,-28.1 118.29,-42.33 198.08,-42.33 81.52,0 161.65,12.15 240.05,36.43l-36.42 198.42c-46.49,-10.75 -91.24,-16.3 -134.25,-16.3 -42.32,0 -72.5,9.71 -90.89,29.14 -18.38,19.42 -27.75,56.89 -27.75,112.39l0 77.01 214.38 0 0 224.79 -214.38 0 0 855.45 -285.15 0 0 -855.45 -158.18 0 0 -224.79z"/>
  <path id="_14" class="fil1" d="M18985.58 14727.81c73.55,53.07 153.68,95.05 240.4,126.27l-110.66 214.38c-45.09,-13.53 -89.5,-32.26 -132.86,-56.2 -9.36,-4.85 -75.97,-48.91 -199.81,-132.86 -97.48,42.67 -205.71,64.18 -324.35,64.18 -228.95,0 -408.64,-67.65 -538.38,-202.59 -129.74,-135.29 -194.61,-325.04 -194.61,-569.6 0,-243.87 65.22,-433.62 195.3,-568.91 130.09,-135.64 306.66,-203.29 529.37,-203.29 220.97,0 396.15,67.65 525.54,203.29 129.4,135.29 194.27,324.69 194.27,568.56 0,128.7 -18.04,242.13 -54.12,339.96 -27.06,74.58 -70.42,147.08 -130.09,216.81zm-241.44 -169.29c38.51,-45.79 67.3,-100.6 86.73,-165.12 19.08,-64.52 28.79,-138.41 28.79,-222.01 0,-172.41 -37.81,-301.11 -113.78,-386.45 -75.97,-84.99 -175.18,-127.65 -297.64,-127.65 -122.8,0 -222.36,42.66 -298.33,128.35 -76.32,85.68 -114.48,214.38 -114.48,386.44 0,174.49 38.16,305.27 114.48,391.65 76.32,86.72 172.76,130.08 289.31,130.08 43.71,0 84.65,-7.28 123.15,-21.51 -60.71,-39.89 -122.8,-70.76 -185.59,-92.96l84.3 -174.84c98.52,34.34 192.87,85.34 283.06,154.02z"/>
  <path id="_15" class="fil1" d="M20118.55 14916.52l0 -161.65c-39.54,57.58 -91.23,103.37 -155.41,137.71 -64.17,34 -131.82,51 -202.93,51 -72.85,0 -138.07,-15.96 -195.65,-47.87 -57.93,-31.92 -99.56,-77.01 -125.23,-134.6 -26.02,-57.93 -38.85,-137.72 -38.85,-239.71l0 -685.12 285.15 0 0 497.45c0,152.29 5.2,245.26 15.95,279.6 10.41,34.35 29.49,61.75 57.59,81.52 27.75,20.12 63.13,30.18 106.15,30.18 48.91,0 92.62,-13.53 131.47,-40.24 38.85,-26.71 65.22,-60.01 79.44,-99.9 14.22,-39.9 21.51,-137.03 21.51,-292.09l0 -456.52 285.15 0 0 1080.24 -264.34 0z"/>
  <path id="_16" class="fil1" d="M20888.32 14169.3l-258.09 -45.79c29.14,-105.45 79.44,-183.5 150.55,-234.15 71.12,-50.65 176.92,-75.97 317.07,-75.97 127.31,0 222.36,14.92 284.8,45.1 62.09,30.18 106.15,68.33 131.47,114.82 25.33,46.48 38.16,131.47 38.16,255.66l-4.16 333.02c0,94.7 4.51,164.78 13.53,209.87 9.02,45.1 26.01,93.32 50.99,144.66l-283.07 0c-7.28,-18.73 -16.65,-46.48 -27.4,-83.26 -4.51,-16.99 -7.98,-28.09 -10.06,-33.3 -48.57,47.87 -100.6,83.6 -156.11,107.54 -55.5,23.94 -114.47,36.08 -177.26,36.08 -110.66,0 -198.08,-30.18 -261.91,-90.54 -63.83,-60.02 -95.74,-136.33 -95.74,-228.61 0,-60.7 14.57,-115.17 43.71,-163.04 29.14,-47.52 69.72,-84.29 122.45,-109.62 52.38,-25.32 128.01,-47.52 226.87,-66.6 133.21,-24.98 225.83,-48.57 277.17,-70.08l0 -28.79c0,-55.5 -13.52,-95.05 -40.58,-118.98 -27.41,-23.59 -78.75,-35.39 -154.02,-35.39 -51,0 -90.55,10.06 -118.99,30.53 -28.79,20.12 -51.69,55.85 -69.38,106.84zm382.97 231.04c-36.42,12.14 -94.35,26.71 -173.79,43.71 -79.09,16.99 -131.13,33.65 -155.41,49.6 -37.12,26.71 -55.85,60.02 -55.85,100.6 0,40.24 14.92,74.59 44.75,103.73 29.83,29.13 67.64,43.7 113.78,43.7 51.34,0 100.6,-16.99 147.43,-50.64 34.34,-26.02 57.24,-57.24 67.99,-94.71 7.29,-24.28 11.1,-70.76 11.1,-139.1l0 -56.89z"/>
  <polygon id="_17" class="fil1" points="21833.61,14916.52 21833.61,13426.25 22118.76,13426.25 22118.76,14916.52 "/>
  <path id="_18" class="fil1" d="M22411.89 13690.59l0 -264.34 285.15 0 0 264.34 -285.15 0zm0 1225.93l0 -1080.24 285.15 0 0 1080.24 -285.15 0z"/>
  <path id="_19" class="fil1" d="M23483.46 13836.28l0 226.87 -195.65 0 0 437.44c0,88.81 1.73,140.49 5.55,155.06 3.81,14.57 12.14,26.71 25.67,36.43 13.18,9.36 29.14,14.22 48.22,14.22 26.71,0 64.87,-9.02 115.17,-27.4l23.93 222.01c-66.26,28.45 -141.19,42.67 -225.13,42.67 -51.35,0 -97.48,-8.67 -138.76,-26.02 -41.28,-17.34 -71.46,-39.89 -90.54,-67.3 -19.43,-27.75 -32.61,-64.87 -40.24,-112.04 -5.9,-33.31 -9.02,-100.6 -9.02,-202.25l0 -472.82 -131.13 0 0 -226.87 131.13 0 0 -214.38 285.15 -168.59 0 382.97 195.65 0z"/>
  <path id="_20" class="fil1" d="M23545.9 13836.28l303.88 0 259.13 766.3 252.89 -766.3 295.56 0 -380.9 1039.65 -68.68 187.67c-25.33,62.79 -49.26,110.66 -72.16,143.97 -22.55,32.95 -48.91,60.01 -78.4,80.48 -29.48,20.81 -65.91,36.77 -109.27,48.21 -43.01,11.45 -91.93,17.35 -146.39,17.35 -54.81,0 -108.92,-5.9 -162,-17.35l-24.98 -222.7c44.75,8.67 85.34,13.18 121.42,13.18 66.6,0 115.86,-19.43 147.78,-58.63 31.91,-39.2 56.54,-89.15 73.54,-149.51l-411.42 -1082.32z"/>
  <path id="_21" class="fil1" d="M25631.44 14169.3l-258.09 -45.79c29.14,-105.45 79.44,-183.5 150.55,-234.15 71.12,-50.65 176.92,-75.97 317.07,-75.97 127.31,0 222.36,14.92 284.8,45.1 62.09,30.18 106.15,68.33 131.47,114.82 25.33,46.48 38.16,131.47 38.16,255.66l-4.16 333.02c0,94.7 4.51,164.78 13.53,209.87 9.02,45.1 26.01,93.32 50.99,144.66l-283.07 0c-7.28,-18.73 -16.65,-46.48 -27.4,-83.26 -4.51,-16.99 -7.98,-28.09 -10.06,-33.3 -48.57,47.87 -100.6,83.6 -156.11,107.54 -55.5,23.94 -114.47,36.08 -177.26,36.08 -110.66,0 -198.08,-30.18 -261.91,-90.54 -63.83,-60.02 -95.74,-136.33 -95.74,-228.61 0,-60.7 14.57,-115.17 43.71,-163.04 29.14,-47.52 69.72,-84.29 122.45,-109.62 52.38,-25.32 128.01,-47.52 226.87,-66.6 133.21,-24.98 225.83,-48.57 277.17,-70.08l0 -28.79c0,-55.5 -13.52,-95.05 -40.58,-118.98 -27.41,-23.59 -78.75,-35.39 -154.02,-35.39 -51,0 -90.55,10.06 -118.99,30.53 -28.79,20.12 -51.69,55.85 -69.38,106.84zm382.97 231.04c-36.42,12.14 -94.35,26.71 -173.79,43.71 -79.09,16.99 -131.13,33.65 -155.41,49.6 -37.12,26.71 -55.85,60.02 -55.85,100.6 0,40.24 14.92,74.59 44.75,103.73 29.83,29.13 67.64,43.7 113.78,43.7 51.34,0 100.6,-16.99 147.43,-50.64 34.34,-26.02 57.24,-57.24 67.99,-94.71 7.29,-24.28 11.1,-70.76 11.1,-139.1l0 -56.89z"/>
  <path id="_22" class="fil1" d="M27559.14 14916.52l-285.15 0 0 -550.53c0,-116.55 -6.24,-191.83 -18.38,-225.82 -12.49,-34.35 -32.27,-60.71 -60.02,-79.79 -27.75,-19.08 -61.05,-28.45 -99.9,-28.45 -49.96,0 -94.71,13.53 -134.25,40.59 -39.9,27.06 -66.95,63.14 -81.52,107.54 -14.92,44.75 -22.2,127.31 -22.2,248.03l0 488.43 -285.15 0 0 -1080.24 264.33 0 0 158.54c94.7,-121.07 213.69,-181.43 357.65,-181.43 63.14,0 121.07,11.45 173.45,33.99 52.73,22.9 92.28,51.69 118.99,86.73 27.05,35.38 45.79,75.28 56.19,120.02 10.76,44.75 15.96,108.58 15.96,191.84l0 670.55z"/>
  <path id="_23" class="fil1" d="M28838.85 14916.52l-264.34 0 0 -158.53c-44.05,61.75 -96.44,107.88 -156.45,139.1 -60.01,30.88 -120.72,46.49 -181.77,46.49 -124.54,0 -231.04,-49.96 -319.84,-150.21 -88.46,-100.25 -132.86,-239.7 -132.86,-419.05 0,-183.16 43.01,-322.61 129.39,-418.01 86.38,-95.4 195.3,-142.92 327.12,-142.92 120.72,0 225.49,50.3 313.6,150.55l0 -537.69 285.15 0 0 1490.27zm-761.79 -560.93c0,115.51 15.96,199.12 47.53,250.8 46.13,74.93 110.31,112.4 192.87,112.4 65.56,0 121.41,-28.1 167.2,-84.3 46.14,-56.19 69.04,-139.8 69.04,-251.5 0,-124.53 -22.2,-214.03 -66.95,-268.84 -44.75,-54.81 -101.64,-82.22 -171.37,-82.22 -67.65,0 -124.19,27.06 -169.98,81.18 -45.44,54.11 -68.34,134.94 -68.34,242.48z"/>
  <polygon id="_24" class="fil1" points="29699.85,14916.52 29699.85,13426.25 30802.98,13426.25 30802.98,13678.1 30001.65,13678.1 30001.65,14009.04 30746.78,14009.04 30746.78,14260.89 30001.65,14260.89 30001.65,14664.67 30832.12,14664.67 30832.12,14916.52 "/>
  <path id="_25" class="fil1" d="M32026.83 14156.82l-280.98 49.95c-9.37,-55.85 -30.88,-97.83 -64.53,-126.27 -33.64,-28.1 -77.01,-42.32 -130.43,-42.32 -71.11,0 -128,24.63 -170.33,73.89 -42.32,49.26 -63.48,131.47 -63.48,246.99 0,128.35 21.51,218.89 64.53,271.96 43.01,53.08 100.6,79.44 172.75,79.44 54.12,0 98.52,-15.61 132.86,-46.48 34.69,-30.87 58.97,-83.95 73.2,-159.57l280.98 47.87c-29.14,129.04 -84.99,226.52 -167.55,292.43 -82.56,65.91 -193.22,98.87 -332.33,98.87 -157.49,0 -283.41,-49.96 -377.07,-149.51 -94.01,-99.91 -140.84,-237.98 -140.84,-414.55 0,-178.65 47.18,-317.41 141.18,-416.97 94.01,-99.56 221.32,-149.16 381.94,-149.16 131.13,0 235.54,28.44 313.25,84.99 77.35,56.54 132.86,142.57 166.85,258.44z"/>
  <path id="_26" class="fil1" d="M32177.04 14363.22c0,-95.05 23.24,-186.98 70.07,-275.78 46.83,-89.16 113.09,-156.8 198.77,-203.63 85.68,-46.83 181.08,-70.42 286.88,-70.42 163.39,0 296.95,53.07 401.36,159.22 104.42,106.5 156.45,240.4 156.45,402.75 0,163.74 -52.72,299.37 -157.83,406.91 -105.46,107.54 -237.98,161.31 -397.89,161.31 -98.87,0 -193.23,-22.55 -283.07,-67.3 -89.5,-44.75 -157.84,-110.31 -204.67,-197.04 -46.83,-86.37 -70.07,-191.83 -70.07,-316.02zm293.47 15.26c0,107.19 25.32,189.41 75.97,246.3 50.99,57.24 113.44,85.68 188.02,85.68 74.23,0 136.68,-28.44 186.98,-85.68 50.3,-56.89 75.62,-139.8 75.62,-248.38 0,-105.8 -25.32,-187.32 -75.62,-244.21 -50.3,-57.24 -112.75,-85.69 -186.98,-85.69 -74.58,0 -137.03,28.45 -188.02,85.69 -50.65,56.89 -75.97,139.1 -75.97,246.29z"/>
  <path id="_27" class="fil1" d="M34497.43 14916.52l-285.15 0 0 -550.53c0,-116.55 -6.24,-191.83 -18.38,-225.82 -12.49,-34.35 -32.27,-60.71 -60.02,-79.79 -27.75,-19.08 -61.05,-28.45 -99.9,-28.45 -49.96,0 -94.71,13.53 -134.25,40.59 -39.9,27.06 -66.95,63.14 -81.52,107.54 -14.92,44.75 -22.2,127.31 -22.2,248.03l0 488.43 -285.15 0 0 -1080.24 264.33 0 0 158.54c94.7,-121.07 213.69,-181.43 357.65,-181.43 63.14,0 121.07,11.45 173.45,33.99 52.73,22.9 92.28,51.69 118.99,86.73 27.05,35.38 45.79,75.28 56.19,120.02 10.76,44.75 15.96,108.58 15.96,191.84l0 670.55z"/>
  <path id="_28" class="fil1" d="M34719.8 14363.22c0,-95.05 23.24,-186.98 70.07,-275.78 46.83,-89.16 113.09,-156.8 198.77,-203.63 85.68,-46.83 181.08,-70.42 286.88,-70.42 163.39,0 296.95,53.07 401.36,159.22 104.42,106.5 156.45,240.4 156.45,402.75 0,163.74 -52.72,299.37 -157.83,406.91 -105.46,107.54 -237.98,161.31 -397.89,161.31 -98.87,0 -193.23,-22.55 -283.07,-67.3 -89.5,-44.75 -157.84,-110.31 -204.67,-197.04 -46.83,-86.37 -70.07,-191.83 -70.07,-316.02zm293.47 15.26c0,107.19 25.32,189.41 75.97,246.3 50.99,57.24 113.44,85.68 188.02,85.68 74.23,0 136.68,-28.44 186.98,-85.68 50.3,-56.89 75.62,-139.8 75.62,-248.38 0,-105.8 -25.32,-187.32 -75.62,-244.21 -50.3,-57.24 -112.75,-85.69 -186.98,-85.69 -74.58,0 -137.03,28.45 -188.02,85.69 -50.65,56.89 -75.97,139.1 -75.97,246.29z"/>
  <path id="_29" class="fil1" d="M36036.97 13836.28l262.25 0 0 147.43c94.01,-113.43 206.06,-170.32 336.14,-170.32 69.03,0 129.05,14.22 179.69,42.67 51,28.44 92.63,71.46 124.89,129.04 47.52,-57.58 98.86,-100.6 153.67,-129.04 54.81,-28.45 113.44,-42.67 175.88,-42.67 79.09,0 146.04,15.96 201.2,48.22 54.81,32.26 95.74,79.44 122.8,141.88 19.77,45.79 29.49,120.37 29.49,223.4l0 689.63 -285.15 0 0 -616.44c0,-107.19 -9.72,-176.22 -29.49,-207.09 -26.36,-40.59 -67.3,-61.06 -122.11,-61.06 -39.89,0 -77.7,12.14 -113.08,36.43 -35.04,24.63 -60.71,60.36 -76.32,107.19 -15.61,47.18 -23.24,121.41 -23.24,223.05l0 517.92 -285.15 0 0 -591.11c0,-104.76 -5.21,-172.76 -15.27,-202.94 -10.06,-30.52 -25.67,-53.42 -47.17,-68.34 -21.16,-14.91 -50.3,-22.2 -86.73,-22.2 -44.05,0 -83.6,11.8 -118.64,35.39 -35.38,23.93 -60.36,57.93 -75.62,102.68 -15.26,44.75 -22.9,118.98 -22.9,222.36l0 524.16 -285.14 0 0 -1080.24z"/>
  <path id="_30" class="fil1" d="M37771.1 13836.28l303.88 0 259.13 766.3 252.89 -766.3 295.56 0 -380.9 1039.65 -68.68 187.67c-25.33,62.79 -49.26,110.66 -72.16,143.97 -22.55,32.95 -48.91,60.01 -78.4,80.48 -29.48,20.81 -65.91,36.77 -109.27,48.21 -43.01,11.45 -91.93,17.35 -146.39,17.35 -54.81,0 -108.92,-5.9 -162,-17.35l-24.98 -222.7c44.75,8.67 85.34,13.18 121.42,13.18 66.6,0 115.86,-19.43 147.78,-58.63 31.91,-39.2 56.54,-89.15 73.54,-149.51l-411.42 -1082.32z"/>
 </g>
</svg>
