<?xml version="1.0" encoding="UTF-8"?>
<!DOCTYPE svg PUBLIC "-//W3C//DTD SVG 1.1//EN" "http://www.w3.org/Graphics/SVG/1.1/DTD/svg11.dtd">
<!-- Creator: CorelDRAW 2023 -->
<svg xmlns="http://www.w3.org/2000/svg" xml:space="preserve" width="1013.46mm" height="340.36mm" version="1.1" style="shape-rendering:geometricPrecision; text-rendering:geometricPrecision; image-rendering:optimizeQuality; fill-rule:evenodd; clip-rule:evenodd"
viewBox="0 0 101346 34036"
 xmlns:xlink="http://www.w3.org/1999/xlink"
 xmlns:xodm="http://www.corel.com/coreldraw/odm/2003">
 <defs>
  <style type="text/css">
   <![CDATA[
    .fil1 {fill:blue}
    .fil0 {fill:blue;fill-rule:nonzero}
   ]]>
  </style>
 </defs>
 <g id="Layer_x0020_1">
  <metadata id="CorelCorpID_0Corel-Layer"/>
  <g id="_1382279472544">
   <path class="fil0" d="M46823.36 3840.73c-659.1,-116.71 -1347.39,-177.77 -2078.23,-202.05 -730.84,24.28 -1419.13,85.34 -2078.22,202.05 -648.87,114.98 -1260.55,283.42 -1845.81,523.52 -716.66,330.21 -1399.99,753.53 -2013.03,1234.09 -625.19,490.11 -1175.99,1039.68 -1612.85,1610.08 -147.26,192.36 -275.61,367.26 -386.54,526.07 -109.03,155.98 -212.82,312.47 -311.8,469.23 -127.21,230.78 -249.23,475.15 -367.49,729.25 -126.66,272.15 -237.41,527.48 -338.53,772.76 -61.55,149.26 -116.57,293.79 -165.58,433.23 -47.05,133.76 -87.56,259.24 -122.39,376.95 -93.93,453.23 -120.07,868.05 -144.89,1263.18 -25.64,407.82 -50.15,796.5 -144.76,1222.45 -67.79,305.2 -298.84,640.87 -563.76,814.54 -138.03,90.61 -293.79,146.99 -457.6,152.08l-1.77 0c-192.27,5.87 -376.31,-55.97 -535.39,-207.86 -186.04,-177.72 -326.48,-488.47 -365.63,-982.26 -3.45,-28.83 -6.27,-62.2 -8.41,-100.89 -3.04,-53.69 -4.55,-98.11 -4.55,-134.66l1.82 -5.37 0.46 -38.28c-0.5,-45.92 -0.27,-92.93 0.54,-140.57 1,-58.93 2.55,-110.85 4.46,-156.04 49.37,-1571.8 434.18,-3016.93 1074.55,-4299.98 681.47,-1365.39 1653.5,-2550.01 2819.16,-3510.72 1012.72,-863.23 2110.14,-1509.15 3248.89,-1956.97 1204.53,-473.74 2457.58,-725.8 3707.76,-778.63l17.82 -1.81 1187.22 0 17.82 1.81c1250.09,52.83 2503.13,304.89 3707.67,778.63 1138.79,447.82 2236.17,1093.74 3249.16,1956.65 1160.34,956.98 2129.69,2137.88 2811.84,3500.72 641.32,1281.19 1028.04,2721.41 1080.51,4284.98 2.41,48.24 4.14,104.43 5.36,166.49l0 1.77c0.96,52.06 1.23,103.25 0.73,153.49l0.46 38.46 1.81 5.37c0,34.55 -1.5,78.38 -4.41,132.16 -2.09,39.47 -4.91,73.47 -8.5,102.8 -38.96,493.79 -179.4,804.81 -365.44,982.71 -158.99,151.94 -343.08,213.82 -535.39,207.96 -165.04,-5.05 -321.3,-61.47 -459.42,-151.99 -264.87,-173.59 -495.97,-509.43 -563.85,-814.59 -94.75,-426.14 -119.21,-814.99 -144.85,-1222.99 -24.78,-394.54 -50.87,-808.63 -144.35,-1260.82 -34.91,-117.89 -75.51,-243.6 -122.71,-377.77 -49.1,-139.8 -104.16,-284.65 -165.81,-434.23 -101.2,-245.6 -212.04,-501.24 -338.8,-773.53 -118.29,-254.19 -240.55,-498.79 -368.08,-729.93 -98.88,-156.58 -202.63,-312.84 -311.38,-468.6 -110.84,-158.72 -238.96,-333.35 -385.95,-525.25 -436.91,-570.45 -987.81,-1120.02 -1613.03,-1610.13 -613.09,-480.51 -1296.38,-903.83 -2013.03,-1234.04 -585.27,-240.1 -1196.9,-408.54 -1845.81,-523.52z"/>
   <path class="fil0" d="M5342.45 25989.29l0 -8067.97 1602.78 0 0 -1728.9 -5240.65 0 0 1728.9 1584.84 0 0 8067.97 -1764.94 0 0 1728.86 5600.85 0 0 -1728.86 -1782.88 0zm3619.78 1728.86l2053.04 0 0 -7221.59 6231.06 7221.59 972.43 0 0 -11525.73 -2053.03 0 0 7221.64 -6231.07 -7221.64 -972.43 0 0 11525.73zm14875.21 -11525.73l-3169.53 0 0 11525.73 3169.53 0c3961.88,0 6375.13,-2179.12 6375.13,-5762.86 0,-3583.73 -2413.25,-5762.87 -6375.13,-5762.87zm0 9544.8l-1116.5 0 0 -7563.7 1116.5 0c2683.26,0 4322.09,1422.7 4322.09,3781.77 0,2359.23 -1638.83,3781.93 -4322.09,3781.93zm11417.59 252.07l0 -8067.97 1602.78 0 0 -1728.9 -5240.63 0 0 1728.9 1584.82 0 0 8067.97 -1764.92 0 0 1728.86 5600.85 0 0 -1728.86 -1782.9 0zm33802.38 1728.86l-2611.27 -3997.93c1584.73,-594.28 2503.16,-1836.9 2503.16,-3565.76 0,-2467.23 -1872.79,-3962.04 -4934.34,-3962.04l-3529.73 0 0 11525.73 2053.03 0 0 -3601.79 1476.7 0c144.04,0 270.13,0 414.2,-17.97l2359.09 3619.76 2269.16 0zm-6519.15 -9544.63l1476.7 0c1782.86,0 2881.42,756.29 2881.42,1980.94 0,1224.64 -1098.56,1980.94 -2881.42,1980.94l-1476.7 0 0 -3961.88zm15253.5 -1981.1l-8121.96 0 0 1872.96 3025.48 0 0 9652.77 2052.91 0 0 -9652.77 3043.57 0 0 -1872.96zm6032.88 11705.86c2845.37,0 4574.27,-1980.95 4574.27,-5222.6l0 -6483.26 -2053.03 0 0 6483.26c0,2017.01 -954.5,3259.59 -2521.24,3259.59 -1566.75,0 -2521.23,-1242.58 -2521.23,-3259.59l0 -6483.26 -2053.05 0 0 6483.26c0,3241.65 1728.88,5222.6 4574.28,5222.6zm10247.08 0c2593.18,0 4592.23,-1368.71 4592.23,-3637.74 0,-4322.23 -6213.11,-3025.5 -6213.11,-5042.49 0,-720.38 936.51,-1206.67 1926.94,-1206.67 612.37,0 1999.01,306.18 3259.58,1080.56l486.29 -1746.81c-1224.63,-936.54 -2773.42,-1332.66 -3763.83,-1332.66 -2143.07,0 -3962.01,1170.51 -3962.01,3205.58 0,4087.99 6213.11,2683.24 6213.11,5096.47 0,1008.49 -1296.6,1584.7 -2593.33,1584.7 -954.36,0 -2467.11,-396.12 -3673.78,-1260.55l-486.17 1746.85c1188.58,1008.48 2863.35,1512.76 4214.08,1512.76z"/>
   <path class="fil0" d="M99821.51 12920.19c0,734.13 -258.35,1360.7 -777.63,1880.01 -517.91,519.3 -1144.61,778.89 -1878.78,778.89 -735.42,0 -1361.99,-259.59 -1881.28,-778.89 -520.56,-519.31 -780.13,-1145.88 -780.13,-1880.01 0,-734.17 259.57,-1360.74 780.13,-1880.05 519.29,-519.29 1145.86,-778.89 1881.28,-778.89 734.17,0 1360.87,259.6 1878.78,778.89 519.28,519.31 777.63,1145.88 777.63,1880.05zm-299.31 0c0,-650.99 -230.17,-1206.08 -690.68,-1667.7 -460.32,-461.76 -1016.72,-691.95 -1670.18,-691.95 -650.97,0 -1207.32,230.19 -1667.82,691.95 -460.36,461.62 -690.54,1016.71 -690.54,1667.7 0,650.95 230.18,1206.08 690.54,1667.69 460.5,461.73 1016.85,691.92 1667.82,691.92 653.46,0 1209.86,-230.19 1670.18,-691.92 460.51,-461.61 690.68,-1016.74 690.68,-1667.69zm-3346.91 -1523.23l1108.79 0c401.56,0 688.03,74.13 863.32,221.27 173.88,147.01 260.82,331.21 260.82,549.95 0,232.7 -90.7,427.21 -272.37,584.52 -131.68,112.45 -323.54,187.94 -578.11,225.03 115.08,53.77 195.77,101 243.02,144.47 47.37,42.22 120.21,131.81 219.99,269.9 99.77,138.08 175.26,253.17 227.65,345.27l291.63 521.8 -455.32 0 -276.32 -473.16c-212.19,-368.26 -372.14,-588.28 -483.35,-661.16 -111.29,-73 -294.25,-108.82 -549.93,-108.82l-239.24 0 0 1243.14 -360.58 0 0 -2862.21zm360.58 299.31l0 997.49 365.74 0c402.94,0 668.96,-20.49 798.09,-60.06 94.63,-26.88 172.66,-83.17 234.08,-168.86 60.07,-84.45 90.86,-173.88 90.86,-265.99 0,-138.1 -52.53,-255.82 -156.06,-354.35 -103.63,-98.35 -367.11,-148.23 -787.91,-148.23l-544.8 0z"/>
   <path class="fil1" d="M56055.9 23453.57c49.87,2257.09 91.96,4163.46 -960.55,5777.47 -634.27,972.71 -1400.34,1757.96 -2334.85,2302.89 -938.53,547.27 -2037.23,847.94 -3330.77,847.94 -791.39,0 -1480.67,-92.75 -2097.57,-273.3 -625.04,-182.94 -1168.51,-454.79 -1661.76,-810.59 -2689.73,-1940.63 -2736.15,-3512.6 -2782.39,-5079.22 -12.47,-423.66 -25.02,-847.1 -100.31,-1262.72 -32.72,-180.73 -58.18,-190.9 -116.5,-214.06 -319.9,-127.11 -867.04,-344.44 -1823.52,-1579.84 -1408.26,-1819.01 -2010.66,-3631.04 -2701.04,-5707.97l-163.22 -488.17c-869.17,-2597.68 -630.21,-3406.76 153.8,-3669.06 315.88,-105.66 665.72,-80.81 1060.07,-52.78 415.13,29.53 892.11,63.44 1303.43,-79.4 145.72,-50.58 245.55,-94.13 317.03,-130.95 264.16,-287.81 624.07,-464.87 1020.63,-464.87 810.37,0 1467.5,739.23 1467.5,1651.77 0,912.31 -657.13,1651.63 -1467.5,1651.63 -448.77,0 -850.64,-226.84 -1119.88,-584.23 -210.53,-38.33 -536.35,-76.88 -1212.36,-90.76 81.25,336.34 -16.27,-72.64 36.34,147.83 235.68,987.16 356.06,1491.16 509.29,1957.66 162.3,493.91 371.37,981.01 798.3,1975.78l202.57 472.38c552.8,1290.53 1080.8,2151.03 1579.84,2670.89 364.6,379.85 697.98,560.67 1001.26,585.69 168.13,13.88 335.95,-21.31 502.05,-97.52l19.14 -12.56c306.29,-200.67 629.68,-537.68 969.61,-1037.69 336.57,-494.98 683.66,-1142.07 1039.9,-1964.51l202.53 -467.03 0 -1.77c428.66,-987.56 638.52,-1471.04 798.29,-1951.91 159.82,-481.09 278.61,-972.75 511.07,-1935.64l34.79 -144.25c-898.16,18.26 -1177.79,79.62 -1390.44,126.35 -10.96,2.39 -21.75,4.77 -32.45,7.12 -247.97,215.7 -558.94,343.99 -896.49,343.99 -810.41,0 -1467.54,-739.27 -1467.54,-1651.63 0,-912.49 657.13,-1651.59 1467.54,-1651.59 528.27,0 991.5,314.2 1249.9,785.83 23.83,8.75 49.12,17.73 76,26.97 411.02,141.16 888,107.6 1303.04,78.43 398.46,-27.99 751.61,-52.84 1066.92,53.84 779.24,263.63 1014.52,1067.71 148.01,3628.52l-163.05 482.11c-563.72,1676.97 -1068.72,3179.3 -2001.42,4653.17 -343.64,620.62 -703.77,1164.09 -1093.7,1586.38 -323.13,349.97 -667.71,619.51 -1040.88,786.67 -115.43,66.32 -215.3,111.28 -301.78,146.82 7.87,1032.48 51.86,1817.95 219.37,2463.73 180.78,696.92 515.93,1260.11 1127.04,1852.43 548.43,531.54 1164,948.52 1884.84,1186.28 723.01,238.47 1559.37,299.48 2550.16,119.02 856.7,-156.06 1504.77,-488.39 2024.23,-947.46 531.71,-469.95 940.57,-1080.85 1304.24,-1776.49 353.19,-676.85 339.48,-1152.59 316.18,-1962.56 -6.8,-238.16 -14.5,-503.06 -14.76,-819.78l0.04 -2442.33c-527.55,-183.69 -1000.38,-487.63 -1386.64,-879.64 -653.77,-663.55 -1058.29,-1578.91 -1058.29,-2589.06 0,-1010.15 404.52,-1925.51 1058.29,-2589.06 656.03,-665.8 1561.71,-1077.57 2561.16,-1077.57 999.5,0 1905.23,411.82 2561.3,1077.57 653.77,663.55 1058.34,1578.95 1058.34,2589.06 0,1010.06 -404.57,1925.51 -1058.34,2589.06 -471.45,478.39 -1071.82,825.66 -1743.24,983.27 4.29,296.38 10.83,590.91 17.2,879.42zm-872.97 -6047.9c868.28,0 1572.64,714.3 1572.64,1595.97 0,881.9 -704.36,1596.15 -1572.64,1596.15 -868.54,0 -1572.63,-714.25 -1572.63,-1596.15 0,-881.67 704.09,-1595.97 1572.63,-1595.97z"/>
  </g>
 </g>
</svg>
