<svg
          xmlns="http://www.w3.org/2000/svg"
          xml:space="preserve"
          width="100%"
          height="100%"
          version="1.1"
          style="shape-rendering:geometricPrecision; text-rendering:geometricPrecision; image-rendering:optimizeQuality; fill-rule:evenodd; clip-rule:evenodd"
          viewBox="0 0 2450 3050"
        >
          <g id="_1695786544464">
            <path
              class="fil0"
              d="M168.22 2738.34l0 -1820.34 711.2 0 0 -762 1236.14 0c100.8,0 160.86,60.06 160.86,160.86l0 2421.48c0,100.8 -60.06,160.86 -160.86,160.86l-1786.47 0c-100.8,0 -160.87,-60.06 -160.87,-160.86zm601.14 -2514.61l0 584.2 -533.4 0c9.11,-34.14 37.95,-50.55 61.5,-73.96l203.02 -220.32c14.82,-16.84 14.93,-21.13 29.76,-37.97l101.41 -110.26c27.21,-27.05 40.74,-38.85 65.08,-70.38 22.09,-28.61 44.72,-52.62 72.63,-71.31zm-474.14 2785.54l1854.2 0c126.23,0 237.07,-110.84 237.07,-237.07l0 -2489.2c0,-124.44 -112.63,-237.07 -237.07,-237.07l-1363.13 0c-31.59,0 -254.93,264.32 -298.34,311.26l-118.66 126.87c-26.92,26.37 -35.41,42.21 -59.14,67.86l-237.83 253.82c-28.43,31.05 -15.25,30.68 -14.05,86.29 9.16,423.93 -0.11,936.25 -0.11,1363.7 0,163.72 0.68,327.58 -0.2,491.27 -0.84,155.08 106.75,262.27 237.26,262.27z"
            ></path>
            <path
              class="fil0"
              d="M473.02 1798.53c0,27.93 3.36,67.74 42.34,67.74l1413.93 0c57.24,0 57.24,-110.07 0,-110.07l-1413.93 0c-19.75,0 -42.34,22.59 -42.34,42.33z"
            ></path>
            <path
              class="fil0"
              d="M473.02 2179.53c0,27.93 3.36,67.74 42.34,67.74l1413.93 0c57.24,0 57.24,-110.07 0,-110.07l-1413.93 0c-19.75,0 -42.34,22.59 -42.34,42.33z"
            ></path>
            <path
              class="fil0"
              d="M473.02 2560.53c0,27.93 3.36,67.74 42.34,67.74l1413.93 0c57.24,0 57.24,-110.07 0,-110.07l-1413.93 0c-19.75,0 -42.34,22.59 -42.34,42.33z"
            ></path>
            <path
              class="fil0"
              d="M1175.76 867.2l0 296.33 -304.8 0c-57.25,0 -57.25,110.07 0,110.07l304.8 0 0 304.8c0,57.24 110.06,57.24 110.06,0l0 -304.8 296.34 0c57.24,0 57.24,-110.07 0,-110.07l-296.34 0 0 -296.33c0,-57.25 -110.06,-57.25 -110.06,0z"
            ></path>
          </g>
        </svg>