<svg
          xmlns="http://www.w3.org/2000/svg"
          xml:space="preserve"
          width="100%"
          height="100%"
          version="1.1"
          style="shape-rendering:geometricPrecision; text-rendering:geometricPrecision; image-rendering:optimizeQuality; fill-rule:evenodd; clip-rule:evenodd"
          viewBox="0 0 2450 3050"
        >
          <g id="_1695798495712">
            <path
              class="fil0"
              d="M162.83 2734.73l0 -2421.46c0,-100.8 60.06,-160.86 160.87,-160.86l1786.46 0c100.81,0 160.87,60.06 160.87,160.86l0 2421.46c0,100.81 -60.06,160.87 -160.87,160.87l-1786.46 0c-100.81,0 -160.87,-60.06 -160.87,-160.87zm-110.07 -2455.32l0 2489.19c0,126.23 110.84,237.07 237.07,237.07l1854.2 0c126.23,0 237.07,-110.84 237.07,-237.07l0 -2489.19c0,-124.44 -112.63,-237.07 -237.07,-237.07l-1854.2 0c-124.44,0 -237.07,112.63 -237.07,237.07z"
            ></path>
            <path
              class="fil0"
              d="M467.63 2556.93c0,27.93 3.35,67.74 42.33,67.74l1413.94 0c57.24,0 57.24,-110.07 0,-110.07l-1413.94 0c-19.74,0 -42.33,22.59 -42.33,42.33z"
            ></path>
            <path
              class="fil0"
              d="M467.63 1794.94c0,27.92 3.35,67.73 42.33,67.73l1413.94 0c57.24,0 57.24,-110.07 0,-110.07l-1413.94 0c-19.74,0 -42.33,22.59 -42.33,42.34z"
            ></path>
            <path
              class="fil0"
              d="M467.63 2175.94c0,27.92 3.35,67.73 42.33,67.73l1413.94 0c57.24,0 57.24,-110.07 0,-110.07l-1413.94 0c-19.74,0 -42.33,22.59 -42.33,42.34z"
            ></path>
            <path
              class="fil0"
              d="M1111.1 1447.8l-227.42 -246.72c-14.26,-17.67 -22.46,-22.34 -35.05,-41.14l-82.87 78.02c45.26,68.46 103.82,106.9 156.57,170.01 66.26,79.26 111.55,149.9 205.7,149.9 45.76,0 155.98,-105.1 192.55,-137.65 146.68,-130.58 362.07,-298.09 495.17,-419.23 22.33,-20.32 18.27,-27.61 48.88,-35.79 -8.28,-30.99 -51.78,-76.77 -76.2,-93.13l-632.47 535.94c-19.66,16.63 -23.87,25.74 -44.86,39.79z"
            ></path>
          </g>
        </svg>